<svg width="1440" height="1184" viewBox="0 0 1440 1184" fill="none" xmlns="http://www.w3.org/2000/svg">
<circle cx="39" cy="178" r="95" fill="url(#paint0_linear_1_212)" fill-opacity="0.5"/>
<g filter="url(#filter0_i_1_212)">
<circle cx="63" cy="123" r="8" fill="#102342" fill-opacity="0.4"/>
</g>
<g filter="url(#filter1_i_1_212)">
<circle cx="14" cy="128" r="8" fill="#102342" fill-opacity="0.4"/>
</g>
<g filter="url(#filter2_i_1_212)">
<circle cx="10" cy="200" r="8" fill="#102342" fill-opacity="0.4"/>
</g>
<g filter="url(#filter3_i_1_212)">
<circle cx="101" cy="154" r="8" fill="#102342" fill-opacity="0.4"/>
</g>
<g filter="url(#filter4_i_1_212)">
<circle cx="89" cy="208" r="8" fill="#102342" fill-opacity="0.4"/>
</g>
<g filter="url(#filter5_i_1_212)">
<circle cx="50" cy="166" r="8" fill="#102342" fill-opacity="0.4"/>
</g>
<g filter="url(#filter6_i_1_212)">
<path d="M-17 168C-17 172.418 -20.5817 176 -25 176C-29.4183 176 -33 172.418 -33 168C-33 163.582 -29.4183 160 -25 160C-20.5817 160 -17 163.582 -17 168Z" fill="#102342" fill-opacity="0.4"/>
<path d="M58.5 241C58.5 245.418 54.9183 249 50.5 249C46.0817 249 42.5 245.418 42.5 241C42.5 236.582 46.0817 233 50.5 233C54.9183 233 58.5 236.582 58.5 241Z" fill="#102342" fill-opacity="0.4"/>
</g>
<g filter="url(#filter7_f_1_212)">
<path d="M1105.24 274.248C1154.18 233.834 1227.79 271.095 1224.19 334.465L1201.89 727.751C1198.92 780.116 1143.19 812.226 1096.4 788.538L814.958 646.07C768.163 622.382 761.05 558.462 801.493 525.066L1105.24 274.248Z" fill="url(#paint1_linear_1_212)" fill-opacity="0.75"/>
</g>
<path fill-rule="evenodd" clip-rule="evenodd" d="M-174.986 711.063C-116.909 669.843 -56.1609 607.74 12.4626 626.787C80.9643 645.801 89.095 736.794 129.2 795.493C175.857 863.782 287.946 914.442 262.839 993.244C237.502 1072.77 113.76 1044.79 38.3662 1080.6C-25.0732 1110.73 -67.0528 1193 -136.564 1182.96C-208.427 1172.58 -253.414 1099.9 -283.967 1034.04C-311.696 974.253 -314.805 906.552 -293.735 844.11C-273.978 785.557 -225.38 746.83 -174.986 711.063Z" fill="url(#paint2_linear_1_212)" fill-opacity="0.1"/>
<g filter="url(#filter8_d_1_212)">
<path fill-rule="evenodd" clip-rule="evenodd" d="M941.53 753.635C952.267 753.635 954.857 755.596 954.967 763.811C955.09 772.898 955.6 773.137 959.717 766.069C962.252 761.716 968.058 758.155 972.619 758.155C977.18 758.155 981.997 754.004 983.324 748.93C985.237 741.617 988.116 740.302 997.216 742.586C1009.02 745.549 1031.06 745.924 1058.85 743.632C1071.02 742.629 1074.99 740.11 1076.04 732.733C1078.04 718.75 1063.41 687.984 1052.45 683.114C1045.01 679.804 1043.23 675.358 1044.01 662.01C1044.81 648.471 1043.41 645.098 1037 645.098C1026.27 645.098 1018.11 636.311 1018.32 624.974C1018.41 619.875 1027.58 605.528 1038.69 593.091L1058.88 570.48L1066.78 580.536C1072.57 587.907 1076.49 589.436 1081.46 586.259C1085.19 583.875 1093.33 581.829 1099.55 581.713C1111.09 581.497 1122.9 569.243 1128.44 551.746C1130.13 546.417 1137.37 539.629 1144.53 536.662C1153.57 532.918 1160.44 524.556 1166.99 509.348C1172.38 496.817 1180.29 486.2 1185.47 484.557C1190.44 482.978 1194.52 478.453 1194.52 474.502C1194.52 470.552 1200.07 460.044 1206.85 451.151C1215.71 439.533 1219.05 430.054 1218.72 417.47C1218.31 401.641 1219.75 399.336 1233.71 393.504C1249.73 386.809 1250.35 378.281 1234.81 378.281C1233.29 378.281 1231.75 377.99 1230.3 377.478L1233.93 373.912C1238.17 373.338 1242.9 372.732 1247.55 372.174C1268.2 369.694 1269.89 369.818 1279.04 374.483C1288.46 379.289 1289.01 379.316 1300.94 375.556L1313.17 371.699L1324.26 378.733C1330.36 382.602 1335.93 385.839 1336.64 385.926C1337.34 386.013 1347.04 379.66 1358.19 371.808C1376.71 358.752 1378.84 356.458 1383.1 344.971C1389.32 328.152 1389.69 290.355 1383.81 271.297L1379.75 258.148L1371.14 259.526C1364.8 260.539 1358.94 259.408 1348.94 255.238C1341.46 252.123 1329.9 248.427 1323.25 247.025C1322.76 246.923 1322.29 246.827 1321.83 246.737C1331.13 241.686 1329.53 240.839 1302.64 232.107C1274.98 223.124 1260.65 212.838 1265.3 205.31C1269.6 198.357 1261.53 183.819 1253.38 183.819C1248.78 183.819 1244.34 181.849 1243.51 179.441C1241.58 173.852 1224.55 173.584 1176.15 178.379C1143.57 181.606 1134.1 184.5 1116.51 196.608C1095.99 210.727 1095.71 211.239 1102.06 223.414C1111.24 241.005 1110.18 252.268 1097.77 269.09C1091.82 277.159 1087.89 287.362 1089.04 291.765C1092.37 304.494 1079.26 311.947 1058.45 309.155C1041.53 306.886 1040.59 307.292 1046.78 314.219C1059.36 328.3 1057.75 339.296 1042.04 346.623C1027.45 353.422 1018.14 370.089 1018.14 389.396C1018.14 394.768 1015.33 403.017 1011.88 407.729C1006.49 415.104 1003.45 415.629 990.009 411.505C973.917 406.566 959.354 411.821 959.354 422.566C959.354 429.097 942.926 433.926 930.763 430.971C914.282 426.967 901.53 441.595 899.441 466.904C897.69 488.108 896.835 489.342 879.867 495.14C838.659 509.222 748.733 507.96 712.748 492.796L690 483.209L702.306 508.755C711.221 527.262 719.358 536.972 731.838 543.996C747.866 553.018 749.159 555.298 750.431 576.783C751.579 596.185 753.205 599.874 760.606 599.874C766.274 599.874 769.414 602.967 769.414 608.549C769.414 626.528 764.386 631.531 746.319 631.531C736.636 631.531 728.713 633.345 728.713 635.563C728.713 637.781 724.134 640.748 718.538 642.158C708.346 644.726 697.057 669.942 697.057 690.14C697.057 697.644 698.774 698.491 707.371 695.222C713.045 693.065 728.867 691.484 742.532 691.708C756.197 691.932 769.635 690.72 772.393 689.016C775.15 687.311 786.694 688.711 798.044 692.127C809.395 695.544 819.438 697.582 820.363 696.657C822.416 694.602 856.639 690.937 877.087 690.583C887.548 690.401 891.172 688.622 889.131 684.67C887.524 681.561 890.187 683.901 895.047 689.87C899.907 695.838 902.967 704.224 901.848 708.505C900.458 713.821 903.198 717.138 910.493 718.969C917.936 720.837 921.471 725.249 922.156 733.524C923.563 750.528 926.557 753.635 941.53 753.635Z" fill="#102342"/>
<path d="M954.967 763.811L952.468 763.844L952.468 763.844L954.967 763.811ZM959.717 766.069L957.557 764.811L959.717 766.069ZM983.324 748.93L980.905 748.297L983.324 748.93ZM997.216 742.586L997.825 740.161L997.216 742.586ZM1058.85 743.632L1058.64 741.141H1058.64L1058.85 743.632ZM1076.04 732.733L1073.57 732.38L1073.57 732.38L1076.04 732.733ZM1052.45 683.114L1053.47 680.829L1053.47 680.829L1052.45 683.114ZM1044.01 662.01L1046.51 662.157V662.157L1044.01 662.01ZM1018.32 624.974L1020.82 625.021V625.021L1018.32 624.974ZM1038.69 593.091L1036.82 591.426V591.426L1038.69 593.091ZM1058.88 570.48L1060.84 568.936L1059 566.589L1057.01 568.815L1058.88 570.48ZM1066.78 580.536L1068.74 578.992L1068.74 578.992L1066.78 580.536ZM1081.46 586.259L1080.11 584.152H1080.11L1081.46 586.259ZM1099.55 581.713L1099.59 584.212L1099.55 581.713ZM1128.44 551.746L1130.82 552.501L1130.82 552.501L1128.44 551.746ZM1144.53 536.662L1143.57 534.352L1143.57 534.352L1144.53 536.662ZM1166.99 509.348L1169.28 510.336V510.336L1166.99 509.348ZM1185.47 484.557L1184.71 482.174L1184.71 482.175L1185.47 484.557ZM1206.85 451.151L1204.86 449.635L1204.86 449.635L1206.85 451.151ZM1218.72 417.47L1216.22 417.535V417.535L1218.72 417.47ZM1233.71 393.504L1234.67 395.811V395.811L1233.71 393.504ZM1230.3 377.478L1228.55 375.694L1225.7 378.501L1229.47 379.835L1230.3 377.478ZM1233.93 373.912L1233.6 371.435L1232.77 371.546L1232.18 372.129L1233.93 373.912ZM1247.55 372.174L1247.84 374.656L1247.55 372.174ZM1279.04 374.483L1277.9 376.71L1279.04 374.483ZM1300.94 375.556L1301.69 377.94L1300.94 375.556ZM1313.17 371.699L1314.51 369.588L1313.53 368.965L1312.42 369.314L1313.17 371.699ZM1324.26 378.733L1325.6 376.622L1325.6 376.622L1324.26 378.733ZM1358.19 371.808L1356.75 369.764V369.764L1358.19 371.808ZM1383.1 344.971L1380.75 344.103L1383.1 344.971ZM1383.81 271.297L1386.2 270.561L1383.81 271.297ZM1379.75 258.148L1382.14 257.411L1381.5 255.337L1379.36 255.68L1379.75 258.148ZM1371.14 259.526L1371.53 261.994L1371.53 261.994L1371.14 259.526ZM1348.94 255.238L1349.9 252.931L1349.9 252.931L1348.94 255.238ZM1323.25 247.025L1323.76 244.579V244.579L1323.25 247.025ZM1321.83 246.737L1320.64 244.54L1314.52 247.859L1321.35 249.191L1321.83 246.737ZM1302.64 232.107L1303.41 229.729L1303.41 229.729L1302.64 232.107ZM1265.3 205.31L1267.43 206.624L1267.43 206.624L1265.3 205.31ZM1243.51 179.441L1241.14 180.254L1241.14 180.254L1243.51 179.441ZM1176.15 178.379L1176.39 180.867L1176.39 180.867L1176.15 178.379ZM1116.51 196.608L1115.09 194.549L1115.09 194.549L1116.51 196.608ZM1102.06 223.414L1099.84 224.57V224.57L1102.06 223.414ZM1097.77 269.09L1099.78 270.574L1099.78 270.574L1097.77 269.09ZM1089.04 291.765L1086.62 292.398L1086.62 292.398L1089.04 291.765ZM1058.45 309.155L1058.78 306.678L1058.45 309.155ZM1046.78 314.219L1048.64 312.553L1048.64 312.553L1046.78 314.219ZM1042.04 346.623L1040.98 344.357L1040.98 344.357L1042.04 346.623ZM1011.88 407.729L1009.86 406.253L1009.86 406.253L1011.88 407.729ZM990.009 411.505L990.743 409.115L990.009 411.505ZM930.763 430.971L930.173 433.401H930.173L930.763 430.971ZM899.441 466.904L901.932 467.109H901.932L899.441 466.904ZM879.867 495.14L880.675 497.506L880.675 497.506L879.867 495.14ZM712.748 492.796L711.778 495.099H711.778L712.748 492.796ZM690 483.209L690.971 480.905L684.879 478.338L687.748 484.294L690 483.209ZM702.306 508.755L700.053 509.84L700.053 509.84L702.306 508.755ZM731.838 543.996L733.064 541.818H733.064L731.838 543.996ZM750.431 576.783L747.935 576.931L747.935 576.931L750.431 576.783ZM718.538 642.158L717.927 639.733L717.927 639.734L718.538 642.158ZM707.371 695.222L706.483 692.885H706.483L707.371 695.222ZM742.532 691.708L742.573 689.208L742.573 689.208L742.532 691.708ZM772.393 689.016L773.707 691.142L773.707 691.142L772.393 689.016ZM798.044 692.127L798.765 689.733H798.765L798.044 692.127ZM820.363 696.657L822.131 698.425L822.132 698.424L820.363 696.657ZM877.087 690.583L877.043 688.083L877.087 690.583ZM889.131 684.67L891.352 683.523L891.352 683.523L889.131 684.67ZM895.047 689.87L893.108 691.448H893.108L895.047 689.87ZM901.848 708.505L904.267 709.138L904.267 709.138L901.848 708.505ZM910.493 718.969L909.884 721.394H909.884L910.493 718.969ZM922.156 733.524L919.664 733.73V733.73L922.156 733.524ZM957.467 763.777C957.411 759.587 956.755 755.93 953.743 753.649C952.31 752.565 950.552 751.959 948.581 751.609C946.612 751.258 944.267 751.135 941.53 751.135V756.135C944.161 756.135 946.166 756.257 947.706 756.531C949.244 756.805 950.153 757.203 950.724 757.636C951.719 758.389 952.413 759.82 952.468 763.844L957.467 763.777ZM957.557 764.811C957.047 765.685 956.604 766.428 956.217 767.048C955.825 767.673 955.512 768.137 955.263 768.466C955.139 768.629 955.046 768.739 954.982 768.809C954.912 768.884 954.905 768.88 954.956 768.842C954.998 768.812 955.195 768.671 955.531 768.59C955.709 768.547 955.931 768.521 956.183 768.542C956.438 768.563 956.688 768.631 956.917 768.74C957.37 768.955 957.612 769.264 957.71 769.413C957.807 769.56 957.83 769.651 957.817 769.61C957.788 769.521 957.726 769.259 957.668 768.721C957.553 767.665 957.498 766.059 957.467 763.777L952.468 763.844C952.498 766.106 952.553 767.937 952.697 769.261C952.768 769.913 952.873 770.576 953.061 771.154C953.201 771.585 953.605 772.702 954.772 773.256C956.202 773.935 957.434 773.226 957.918 772.871C958.45 772.48 958.895 771.951 959.248 771.486C959.982 770.517 960.857 769.079 961.877 767.327L957.557 764.811ZM972.619 755.655C969.743 755.655 966.701 756.754 964.101 758.349C961.488 759.952 959.073 762.207 957.557 764.811L961.877 767.327C962.896 765.578 964.652 763.876 966.716 762.611C968.793 761.336 970.934 760.655 972.619 760.655V755.655ZM980.905 748.297C980.382 750.297 979.147 752.177 977.552 753.551C975.945 754.937 974.158 755.655 972.619 755.655V760.655C975.641 760.655 978.543 759.298 980.816 757.339C983.103 755.369 984.939 752.636 985.743 749.562L980.905 748.297ZM997.825 740.161C993.318 739.03 989.515 738.524 986.536 739.885C983.332 741.348 981.889 744.537 980.905 748.297L985.743 749.562C986.672 746.009 987.625 744.884 988.613 744.433C989.827 743.879 992.014 743.858 996.608 745.011L997.825 740.161ZM1058.64 741.141C1030.87 743.431 1009.2 743.015 997.825 740.161L996.608 745.011C1008.85 748.084 1031.25 748.416 1059.05 746.124L1058.64 741.141ZM1073.57 732.38C1073.11 735.617 1072.1 737.302 1070.28 738.461C1068.19 739.783 1064.7 740.641 1058.64 741.141L1059.05 746.124C1065.16 745.62 1069.75 744.716 1072.95 742.684C1076.42 740.488 1077.93 737.225 1078.52 733.086L1073.57 732.38ZM1051.44 685.398C1053.59 686.354 1056.24 688.776 1059.05 692.469C1061.81 696.091 1064.52 700.675 1066.85 705.579C1069.18 710.481 1071.1 715.638 1072.32 720.386C1073.55 725.181 1074 729.357 1073.57 732.38L1078.52 733.086C1079.09 729.117 1078.46 724.203 1077.16 719.145C1075.86 714.039 1073.81 708.579 1071.36 703.433C1068.92 698.289 1066.04 693.395 1063.03 689.441C1060.08 685.559 1056.8 682.308 1053.47 680.829L1051.44 685.398ZM1041.52 661.863C1041.12 668.548 1041.32 673.497 1042.83 677.255C1044.43 681.259 1047.36 683.585 1051.44 685.398L1053.47 680.829C1050.1 679.333 1048.42 677.781 1047.47 675.398C1046.42 672.768 1046.12 668.82 1046.51 662.157L1041.52 661.863ZM1037 647.598C1038.43 647.598 1039.26 647.794 1039.77 648.057C1040.19 648.275 1040.57 648.628 1040.9 649.434C1041.27 650.32 1041.55 651.685 1041.66 653.79C1041.77 655.871 1041.72 658.512 1041.52 661.863L1046.51 662.157C1046.71 658.738 1046.78 655.881 1046.65 653.522C1046.53 651.186 1046.2 649.169 1045.52 647.52C1044.8 645.791 1043.68 644.454 1042.06 643.617C1040.53 642.824 1038.78 642.598 1037 642.598V647.598ZM1015.82 624.927C1015.58 637.53 1024.74 647.598 1037 647.598V642.598C1027.79 642.598 1020.63 635.093 1020.82 625.021L1015.82 624.927ZM1036.82 591.426C1031.19 597.736 1026.04 604.538 1022.27 610.438C1020.38 613.386 1018.82 616.148 1017.71 618.539C1016.65 620.836 1015.85 623.095 1015.82 624.927L1020.82 625.021C1020.83 624.304 1021.22 622.856 1022.25 620.642C1023.23 618.519 1024.67 615.961 1026.48 613.13C1030.09 607.473 1035.08 600.883 1040.55 594.757L1036.82 591.426ZM1057.01 568.815L1036.82 591.426L1040.55 594.757L1060.74 572.145L1057.01 568.815ZM1068.74 578.992L1060.84 568.936L1056.91 572.024L1064.81 582.081L1068.74 578.992ZM1080.11 584.152C1078.09 585.445 1076.71 585.56 1075.33 585.023C1073.67 584.376 1071.59 582.621 1068.74 578.992L1064.81 582.081C1067.75 585.822 1070.53 588.517 1073.52 589.682C1076.79 590.958 1079.86 590.249 1082.8 588.365L1080.11 584.152ZM1099.5 579.213C1096.17 579.276 1092.39 579.85 1088.96 580.711C1085.58 581.561 1082.31 582.748 1080.11 584.152L1082.8 588.365C1084.34 587.386 1087 586.358 1090.18 585.56C1093.31 584.773 1096.71 584.266 1099.59 584.212L1099.5 579.213ZM1126.06 550.992C1123.38 559.431 1119.23 566.516 1114.44 571.475C1109.64 576.457 1104.39 579.122 1099.5 579.213L1099.59 584.212C1106.24 584.088 1112.67 580.518 1118.04 574.945C1123.44 569.349 1127.96 561.559 1130.82 552.501L1126.06 550.992ZM1143.57 534.352C1139.67 535.967 1135.82 538.586 1132.72 541.494C1129.66 544.363 1127.08 547.744 1126.06 550.992L1130.82 552.501C1131.48 550.42 1133.37 547.742 1136.14 545.142C1138.87 542.583 1142.22 540.323 1145.49 538.971L1143.57 534.352ZM1164.69 508.36C1158.24 523.357 1151.71 530.982 1143.57 534.352L1145.49 538.971C1155.43 534.854 1162.65 525.755 1169.28 510.336L1164.69 508.36ZM1184.71 482.175C1182.91 482.744 1181.13 483.992 1179.47 485.517C1177.76 487.075 1176.02 489.076 1174.3 491.375C1170.87 495.976 1167.45 501.937 1164.69 508.36L1169.28 510.336C1171.91 504.228 1175.14 498.615 1178.31 494.363C1179.9 492.237 1181.44 490.492 1182.84 489.206C1184.28 487.887 1185.43 487.192 1186.22 486.94L1184.71 482.175ZM1192.02 474.502C1192.02 475.655 1191.39 477.203 1190 478.746C1188.64 480.256 1186.75 481.526 1184.71 482.174L1186.22 486.94C1189.16 486.009 1191.79 484.227 1193.72 482.092C1195.61 479.99 1197.02 477.301 1197.02 474.502H1192.02ZM1204.86 449.635C1201.39 454.187 1198.23 459.153 1195.93 463.513C1194.78 465.692 1193.82 467.755 1193.15 469.564C1192.5 471.307 1192.02 473.05 1192.02 474.502H1197.02C1197.02 473.979 1197.23 472.928 1197.83 471.311C1198.41 469.762 1199.27 467.901 1200.35 465.848C1202.52 461.743 1205.53 457.009 1208.84 452.667L1204.86 449.635ZM1216.22 417.535C1216.54 429.46 1213.44 438.394 1204.86 449.635L1208.84 452.667C1217.99 440.673 1221.57 430.647 1221.22 417.404L1216.22 417.535ZM1232.74 391.197C1225.9 394.057 1221.25 396.346 1218.71 400.413C1216.18 404.444 1216.02 409.782 1216.22 417.535L1221.22 417.404C1221.01 409.328 1221.36 405.599 1222.94 403.063C1224.51 400.562 1227.56 398.783 1234.67 395.811L1232.74 391.197ZM1234.81 380.781C1238.53 380.781 1240.97 381.301 1242.36 381.97C1243.68 382.607 1243.61 383.095 1243.6 383.201C1243.57 383.664 1243.12 384.788 1241.21 386.388C1239.4 387.914 1236.6 389.585 1232.74 391.197L1234.67 395.811C1238.82 394.076 1242.11 392.169 1244.43 390.213C1246.67 388.332 1248.41 386.068 1248.59 383.562C1248.8 380.699 1246.96 378.636 1244.53 377.465C1242.17 376.326 1238.86 375.781 1234.81 375.781V380.781ZM1229.47 379.835C1231.16 380.431 1232.98 380.781 1234.81 380.781V375.781C1233.61 375.781 1232.35 375.548 1231.14 375.12L1229.47 379.835ZM1232.18 372.129L1228.55 375.694L1232.06 379.261L1235.69 375.696L1232.18 372.129ZM1247.25 369.692C1242.59 370.252 1237.85 370.859 1233.6 371.435L1234.27 376.39C1238.49 375.817 1243.21 375.213 1247.84 374.656L1247.25 369.692ZM1280.17 372.256C1275.55 369.898 1272.46 368.499 1267.79 368.156C1263.34 367.83 1257.48 368.463 1247.25 369.692L1247.84 374.656C1258.27 373.405 1263.57 372.86 1267.42 373.142C1271.04 373.408 1273.38 374.403 1277.9 376.71L1280.17 372.256ZM1300.18 373.172C1294.05 375.105 1291.42 375.846 1289.17 375.735C1287 375.629 1285.02 374.729 1280.17 372.256L1277.9 376.71C1282.47 379.043 1285.47 380.56 1288.92 380.729C1292.28 380.893 1295.89 379.767 1301.69 377.94L1300.18 373.172ZM1312.42 369.314L1300.18 373.172L1301.69 377.94L1313.92 374.083L1312.42 369.314ZM1325.6 376.622L1314.51 369.588L1311.83 373.81L1322.92 380.844L1325.6 376.622ZM1336.94 383.445C1337.09 383.463 1337.19 383.491 1337.23 383.501C1337.28 383.514 1337.3 383.523 1337.3 383.523C1337.3 383.524 1337.29 383.521 1337.27 383.511C1337.25 383.502 1337.22 383.489 1337.18 383.471C1337.01 383.396 1336.76 383.273 1336.42 383.096C1335.75 382.743 1334.84 382.23 1333.73 381.586C1331.52 380.302 1328.63 378.543 1325.6 376.622L1322.92 380.844C1325.99 382.792 1328.94 384.586 1331.22 385.909C1332.35 386.569 1333.34 387.123 1334.1 387.523C1334.48 387.721 1334.83 387.896 1335.13 388.03C1335.27 388.096 1335.43 388.165 1335.6 388.223C1335.72 388.267 1336 388.366 1336.33 388.407L1336.94 383.445ZM1356.75 369.764C1351.19 373.679 1346 377.213 1342.13 379.753C1340.19 381.025 1338.59 382.035 1337.45 382.714C1336.88 383.057 1336.45 383.296 1336.17 383.439C1336.03 383.513 1335.97 383.538 1335.97 383.537C1335.97 383.535 1335.99 383.53 1336.01 383.522C1336.04 383.514 1336.08 383.501 1336.13 383.488C1336.18 383.475 1336.51 383.391 1336.94 383.445L1336.33 388.407C1336.81 388.466 1337.2 388.375 1337.33 388.343C1337.51 388.298 1337.67 388.242 1337.78 388.199C1338 388.111 1338.23 388 1338.44 387.894C1338.87 387.675 1339.41 387.371 1340.02 387.008C1341.24 386.275 1342.9 385.222 1344.87 383.935C1348.8 381.357 1354.04 377.789 1359.63 373.852L1356.75 369.764ZM1380.75 344.103C1378.66 349.76 1377.2 352.828 1374.16 356.1C1371 359.511 1366.07 363.194 1356.75 369.764L1359.63 373.852C1368.83 367.366 1374.23 363.374 1377.83 359.502C1381.55 355.491 1383.28 351.668 1385.44 345.839L1380.75 344.103ZM1381.42 272.034C1384.25 281.209 1385.62 295.13 1385.49 308.949C1385.36 322.793 1383.71 336.102 1380.75 344.103L1385.44 345.839C1388.7 337.021 1390.36 323.022 1390.49 308.998C1390.63 294.95 1389.25 280.443 1386.2 270.561L1381.42 272.034ZM1377.36 258.885L1381.42 272.034L1386.2 270.561L1382.14 257.411L1377.36 258.885ZM1371.53 261.994L1380.15 260.617L1379.36 255.68L1370.74 257.057L1371.53 261.994ZM1347.97 257.546C1358.14 261.785 1364.52 263.116 1371.53 261.994L1370.74 257.057C1365.08 257.963 1359.73 257.03 1349.9 252.931L1347.97 257.546ZM1322.73 249.471C1329.21 250.835 1340.62 254.48 1347.97 257.546L1349.9 252.931C1342.31 249.766 1330.6 246.018 1323.76 244.579L1322.73 249.471ZM1321.35 249.191C1321.8 249.278 1322.26 249.372 1322.73 249.471L1323.76 244.579C1323.27 244.475 1322.78 244.376 1322.31 244.283L1321.35 249.191ZM1301.87 234.485C1308.6 236.671 1313.7 238.347 1317.43 239.714C1321.26 241.116 1323.35 242.09 1324.31 242.808C1324.8 243.171 1324.61 243.187 1324.51 242.797C1324.37 242.233 1324.66 241.892 1324.58 241.99C1324.46 242.138 1324.13 242.446 1323.4 242.929C1322.7 243.391 1321.79 243.915 1320.64 244.54L1323.02 248.934C1324.2 248.296 1325.27 247.688 1326.15 247.103C1327.01 246.539 1327.87 245.884 1328.49 245.106C1329.15 244.278 1329.73 243.048 1329.36 241.584C1329.04 240.295 1328.11 239.401 1327.3 238.797C1325.66 237.58 1322.89 236.389 1319.15 235.019C1315.31 233.614 1310.12 231.909 1303.41 229.729L1301.87 234.485ZM1263.18 203.996C1261.48 206.746 1261.61 209.751 1263.07 212.56C1264.45 215.23 1267.03 217.779 1270.4 220.194C1277.16 225.051 1287.95 229.963 1301.87 234.485L1303.41 229.729C1289.68 225.268 1279.46 220.546 1273.31 216.132C1270.22 213.912 1268.36 211.916 1267.51 210.259C1266.72 208.742 1266.8 207.638 1267.43 206.624L1263.18 203.996ZM1253.38 186.319C1254.67 186.319 1256.17 186.904 1257.72 188.15C1259.26 189.386 1260.71 191.153 1261.82 193.17C1262.94 195.188 1263.68 197.348 1263.92 199.315C1264.16 201.3 1263.86 202.889 1263.18 203.996L1267.43 206.624C1268.9 204.254 1269.2 201.419 1268.88 198.722C1268.56 196.008 1267.58 193.23 1266.2 190.744C1264.82 188.258 1262.98 185.956 1260.85 184.249C1258.73 182.552 1256.16 181.319 1253.38 181.319V186.319ZM1241.14 180.254C1241.9 182.458 1244.02 183.935 1246.01 184.818C1248.14 185.76 1250.75 186.319 1253.38 186.319V181.319C1251.41 181.319 1249.5 180.893 1248.04 180.248C1246.46 179.544 1245.94 178.832 1245.87 178.627L1241.14 180.254ZM1176.39 180.867C1200.6 178.469 1216.83 177.352 1227.22 177.516C1232.43 177.598 1236 178.002 1238.3 178.65C1240.69 179.319 1241.07 180.051 1241.14 180.254L1245.87 178.627C1244.98 176.036 1242.52 174.639 1239.65 173.836C1236.71 173.011 1232.63 172.6 1227.3 172.516C1216.59 172.348 1200.1 173.494 1175.9 175.891L1176.39 180.867ZM1117.92 198.668C1126.61 192.691 1133.14 189.091 1141.44 186.554C1149.82 183.993 1160.11 182.48 1176.39 180.867L1175.9 175.891C1159.61 177.505 1148.88 179.053 1139.98 181.772C1131 184.516 1124 188.418 1115.09 194.549L1117.92 198.668ZM1104.28 222.258C1102.65 219.144 1101.62 217.082 1101.16 215.41C1100.75 213.919 1100.85 212.957 1101.41 211.926C1102.07 210.698 1103.48 209.195 1106.25 207.002C1108.98 204.841 1112.77 202.213 1117.92 198.668L1115.09 194.549C1109.98 198.063 1106.04 200.794 1103.15 203.08C1100.3 205.334 1098.18 207.367 1097.01 209.554C1095.72 211.938 1095.66 214.269 1096.34 216.74C1096.97 219.029 1098.29 221.597 1099.84 224.57L1104.28 222.258ZM1099.78 270.574C1106.1 262.005 1109.77 254.546 1110.5 246.774C1111.23 238.981 1108.98 231.264 1104.28 222.258L1099.84 224.57C1104.32 233.155 1106.13 239.865 1105.52 246.306C1104.91 252.769 1101.85 259.352 1095.76 267.606L1099.78 270.574ZM1091.46 291.133C1091.3 290.534 1091.27 289.481 1091.54 287.933C1091.81 286.43 1092.32 284.649 1093.07 282.7C1094.57 278.803 1096.93 274.431 1099.78 270.574L1095.76 267.605C1092.65 271.817 1090.07 276.582 1088.41 280.904C1087.57 283.066 1086.95 285.165 1086.62 287.066C1086.29 288.922 1086.2 290.795 1086.62 292.398L1091.46 291.133ZM1058.12 311.633C1068.8 313.066 1077.9 311.937 1084.03 308.454C1087.13 306.692 1089.53 304.286 1090.87 301.26C1092.22 298.221 1092.41 294.777 1091.46 291.133L1086.62 292.398C1087.33 295.117 1087.13 297.379 1086.3 299.23C1085.48 301.094 1083.92 302.763 1081.56 304.107C1076.76 306.834 1068.91 308.036 1058.78 306.678L1058.12 311.633ZM1048.64 312.553C1047.05 310.768 1046.17 309.673 1045.82 309.015C1045.63 308.66 1045.84 308.861 1045.76 309.359C1045.64 310.128 1045.08 310.473 1044.94 310.532C1044.91 310.545 1045.12 310.462 1045.8 310.431C1046.43 310.403 1047.29 310.425 1048.43 310.508C1050.72 310.675 1053.88 311.065 1058.12 311.633L1058.78 306.678C1054.56 306.111 1051.25 305.701 1048.8 305.522C1047.57 305.432 1046.49 305.395 1045.57 305.436C1044.71 305.475 1043.77 305.59 1042.95 305.945C1042.03 306.346 1041.04 307.176 1040.82 308.59C1040.64 309.732 1041.07 310.736 1041.4 311.358C1042.09 312.653 1043.41 314.207 1044.91 315.885L1048.64 312.553ZM1043.09 348.889C1051.26 345.081 1056.52 339.97 1057.49 333.316C1058.45 326.773 1055.09 319.769 1048.64 312.553L1044.91 315.885C1051.05 322.75 1053.17 328.285 1052.54 332.592C1051.93 336.788 1048.53 340.838 1040.98 344.357L1043.09 348.889ZM1020.64 389.396C1020.64 370.821 1029.59 355.185 1043.09 348.889L1040.98 344.357C1025.32 351.659 1015.64 369.356 1015.64 389.396H1020.64ZM1013.9 409.204C1015.81 406.588 1017.48 403.102 1018.67 399.618C1019.86 396.145 1020.64 392.453 1020.64 389.396H1015.64C1015.64 391.711 1015.02 394.829 1013.94 398.002C1012.86 401.163 1011.4 404.158 1009.86 406.253L1013.9 409.204ZM989.276 413.895C995.887 415.923 1000.59 417.049 1004.39 416.393C1008.52 415.679 1011.14 412.983 1013.9 409.204L1009.86 406.253C1007.23 409.85 1005.63 411.104 1003.54 411.465C1001.11 411.885 997.57 411.21 990.743 409.115L989.276 413.895ZM961.854 422.566C961.854 418.575 964.486 415.313 969.496 413.505C974.533 411.688 981.629 411.548 989.276 413.895L990.743 409.115C982.298 406.523 974.066 406.541 967.799 408.802C961.504 411.073 956.854 415.812 956.854 422.566H961.854ZM930.173 433.401C936.743 434.997 944.341 434.484 950.325 432.725C953.319 431.844 956.064 430.608 958.118 429.035C960.13 427.494 961.854 425.32 961.854 422.566H956.854C956.854 423.078 956.526 423.956 955.078 425.065C953.671 426.143 951.549 427.153 948.915 427.928C943.644 429.477 936.947 429.901 931.354 428.542L930.173 433.401ZM901.932 467.109C902.95 454.778 906.547 445.372 911.59 439.588C916.536 433.913 922.912 431.636 930.173 433.401L931.354 428.542C922.133 426.302 913.893 429.337 907.821 436.302C901.844 443.158 898.021 453.721 896.949 466.698L901.932 467.109ZM880.675 497.506C884.892 496.065 888.292 494.848 890.967 493.494C893.693 492.114 895.827 490.514 897.415 488.223C898.98 485.966 899.867 483.249 900.488 479.902C901.106 476.569 901.496 472.389 901.932 467.109L896.949 466.698C896.51 472.02 896.136 475.947 895.572 478.99C895.01 482.019 894.295 483.948 893.306 485.375C892.34 486.768 890.969 487.889 888.708 489.034C886.396 490.204 883.326 491.316 879.059 492.775L880.675 497.506ZM711.778 495.099C730.233 502.877 762.113 506.983 794.314 507.435C826.546 507.887 859.668 504.685 880.675 497.506L879.059 492.775C858.859 499.677 826.413 502.885 794.384 502.435C762.323 501.985 731.248 497.879 713.719 490.492L711.778 495.099ZM689.029 485.513L711.778 495.099L713.719 490.492L690.971 480.905L689.029 485.513ZM704.558 507.67L692.252 482.124L687.748 484.294L700.053 509.84L704.558 507.67ZM733.064 541.818C721.185 535.132 713.344 525.908 704.558 507.67L700.053 509.84C709.098 528.615 717.53 538.812 730.611 546.175L733.064 541.818ZM752.926 576.636C752.3 566.056 751.671 559.471 748.843 554.483C745.959 549.398 740.972 546.269 733.064 541.818L730.611 546.175C738.732 550.745 742.405 553.267 744.493 556.949C746.636 560.727 747.289 566.025 747.935 576.931L752.926 576.636ZM760.606 597.374C758.919 597.374 757.915 597.155 757.236 596.791C756.632 596.467 756.033 595.893 755.461 594.596C754.863 593.238 754.359 591.227 753.94 588.23C753.525 585.258 753.213 581.47 752.926 576.636L747.935 576.931C748.223 581.798 748.545 585.746 748.988 588.922C749.429 592.074 750.009 594.623 750.886 596.612C751.79 598.664 753.056 600.224 754.874 601.198C756.618 602.133 758.592 602.374 760.606 602.374V597.374ZM771.914 608.549C771.914 605.297 770.991 602.406 768.89 600.337C766.794 598.273 763.88 597.374 760.606 597.374V602.374C763 602.374 764.49 603.021 765.381 603.899C766.267 604.772 766.914 606.219 766.914 608.549H771.914ZM746.319 634.031C755.389 634.031 762.113 632.825 766.405 628.554C770.701 624.279 771.914 617.578 771.914 608.549H766.914C766.914 617.498 765.613 622.289 762.878 625.01C760.14 627.735 755.316 629.031 746.319 629.031V634.031ZM731.213 635.563C731.213 636.082 730.97 636.381 730.931 636.425C730.905 636.454 730.982 636.363 731.289 636.198C731.898 635.869 732.943 635.496 734.443 635.152C737.403 634.474 741.609 634.031 746.319 634.031V629.031C741.345 629.031 736.748 629.495 733.327 630.278C731.636 630.665 730.095 631.161 728.916 631.797C728.328 632.113 727.711 632.528 727.214 633.081C726.703 633.648 726.213 634.489 726.213 635.563H731.213ZM719.148 644.582C722.168 643.822 724.974 642.629 727.084 641.261C728.134 640.58 729.095 639.803 729.821 638.943C730.514 638.122 731.213 636.961 731.213 635.563H726.213C726.213 635.273 726.34 635.315 726 635.718C725.692 636.082 725.158 636.551 724.364 637.065C722.786 638.089 720.504 639.084 717.927 639.733L719.148 644.582ZM699.557 690.14C699.557 680.45 702.279 669.445 706.257 660.559C708.243 656.124 710.502 652.306 712.815 649.483C715.177 646.601 717.369 645.031 719.149 644.582L717.927 639.734C714.611 640.569 711.569 643.114 708.948 646.314C706.278 649.572 703.804 653.802 701.693 658.516C697.479 667.93 694.557 679.631 694.557 690.14H699.557ZM706.483 692.885C704.36 693.693 702.808 694.187 701.661 694.407C700.465 694.637 700.109 694.485 700.095 694.478C700.095 694.478 700.096 694.479 700.097 694.48C700.099 694.481 700.101 694.482 700.103 694.483C700.108 694.486 700.112 694.49 700.115 694.493C700.123 694.5 700.117 694.497 700.099 694.471C700.059 694.414 699.967 694.254 699.871 693.902C699.668 693.158 699.557 691.977 699.557 690.14H694.557C694.557 692.054 694.66 693.794 695.047 695.217C695.45 696.696 696.258 698.162 697.885 698.964C699.375 699.698 701.06 699.614 702.604 699.318C704.197 699.012 706.084 698.386 708.26 697.559L706.483 692.885ZM742.573 689.208C735.639 689.095 728.17 689.439 721.706 690.085C715.33 690.722 709.66 691.677 706.483 692.885L708.26 697.559C710.756 696.61 715.833 695.696 722.203 695.06C728.485 694.432 735.76 694.097 742.491 694.208L742.573 689.208ZM771.078 686.889C770.832 687.042 769.908 687.376 768.023 687.73C766.268 688.06 763.988 688.355 761.328 688.595C756.014 689.074 749.327 689.319 742.573 689.208L742.491 694.207C749.402 694.321 756.267 694.072 761.777 693.575C764.529 693.327 766.98 693.014 768.947 692.644C770.784 692.299 772.574 691.842 773.707 691.142L771.078 686.889ZM798.765 689.733C792.97 687.989 787.105 686.753 782.297 686.17C779.898 685.878 777.704 685.743 775.884 685.804C774.208 685.86 772.376 686.087 771.078 686.889L773.707 691.142C773.691 691.152 773.845 691.063 774.303 690.973C774.734 690.888 775.314 690.826 776.051 690.801C777.526 690.752 779.445 690.86 781.695 691.133C786.186 691.678 791.768 692.849 797.324 694.521L798.765 689.733ZM818.595 694.889C818.982 694.503 819.372 694.399 819.42 694.386C819.513 694.36 819.534 694.367 819.435 694.374C819.241 694.387 818.878 694.382 818.31 694.33C817.192 694.228 815.596 693.973 813.611 693.57C809.658 692.768 804.386 691.425 798.765 689.733L797.324 694.521C803.053 696.246 808.478 697.63 812.616 698.47C814.676 698.888 816.474 699.183 817.854 699.31C818.534 699.372 819.197 699.401 819.773 699.362C820.06 699.343 820.402 699.302 820.749 699.206C821.052 699.123 821.629 698.927 822.131 698.425L818.595 694.889ZM877.043 688.083C866.722 688.262 852.976 689.274 841.561 690.497C835.852 691.108 830.689 691.776 826.805 692.425C824.868 692.749 823.206 693.075 821.936 693.398C821.305 693.558 820.72 693.73 820.227 693.917C819.842 694.063 819.134 694.35 818.594 694.89L822.132 698.424C821.849 698.707 821.648 698.725 822.001 698.592C822.244 698.499 822.625 698.381 823.166 698.244C824.241 697.971 825.749 697.671 827.629 697.357C831.378 696.73 836.434 696.074 842.093 695.468C853.414 694.256 867.004 693.258 877.13 693.082L877.043 688.083ZM886.91 685.818C887.272 686.519 887.141 686.67 887.185 686.522C887.241 686.334 887.322 686.489 886.695 686.796C885.295 687.483 882.299 687.992 877.043 688.083L877.13 693.082C882.335 692.992 886.382 692.52 888.899 691.284C890.231 690.63 891.489 689.588 891.977 687.95C892.453 686.351 892.01 684.797 891.352 683.523L886.91 685.818ZM896.985 688.291C894.555 685.307 892.559 683.082 891.314 681.988C891.011 681.722 890.631 681.412 890.226 681.188C890.043 681.087 889.658 680.889 889.154 680.82C888.596 680.742 887.515 680.804 886.742 681.77C886.121 682.546 886.151 683.388 886.17 683.657C886.194 684.014 886.28 684.321 886.345 684.522C886.479 684.94 886.687 685.386 886.91 685.818L891.352 683.523C891.268 683.361 891.207 683.233 891.164 683.136C891.143 683.089 891.128 683.052 891.117 683.026C891.107 682.999 891.103 682.988 891.104 682.99C891.104 682.991 891.113 683.016 891.123 683.062C891.132 683.104 891.149 683.191 891.158 683.311C891.166 683.438 891.217 684.18 890.646 684.893C889.923 685.797 888.921 685.835 888.47 685.773C888.074 685.718 887.824 685.573 887.805 685.562C887.726 685.519 887.78 685.539 888.013 685.743C888.913 686.534 890.678 688.464 893.108 691.448L896.985 688.291ZM904.267 709.138C905.023 706.243 904.321 702.478 903.038 698.963C901.714 695.336 899.599 691.501 896.985 688.291L893.108 691.448C895.354 694.206 897.199 697.549 898.341 700.677C899.524 703.918 899.792 706.486 899.429 707.873L904.267 709.138ZM911.102 716.544C907.64 715.675 905.757 714.561 904.841 713.451C904.059 712.505 903.717 711.237 904.267 709.138L899.429 707.873C898.588 711.089 898.922 714.138 900.986 716.636C902.916 718.972 906.051 720.432 909.884 721.394L911.102 716.544ZM924.647 733.318C924.28 728.882 923.125 725.17 920.81 722.28C918.476 719.368 915.189 717.57 911.101 716.544L909.884 721.394C913.24 722.236 915.441 723.577 916.908 725.407C918.392 727.259 919.347 729.891 919.664 733.73L924.647 733.318ZM941.53 751.135C933.963 751.135 930.534 750.275 928.556 748.222C927.558 747.186 926.738 745.647 926.088 743.198C925.433 740.736 924.996 737.532 924.647 733.318L919.664 733.73C920.019 738.018 920.484 741.579 921.255 744.482C922.03 747.398 923.157 749.824 924.955 751.691C928.569 755.442 934.124 756.135 941.53 756.135V751.135Z" fill="#E93565"/>
</g>
<path d="M1163.6 338.656C1160.93 338.659 1158.37 339.719 1156.49 341.605C1154.6 343.49 1153.54 346.046 1153.54 348.713C1153.54 350.892 1154.25 353.011 1155.56 354.747C1155.56 354.747 1155.84 355.108 1155.88 355.16L1163.6 364.255L1171.31 355.156C1171.35 355.107 1171.63 354.747 1171.63 354.747L1171.63 354.744C1172.94 353.009 1173.66 350.891 1173.65 348.713C1173.65 346.046 1172.59 343.49 1170.7 341.605C1168.82 339.719 1166.26 338.659 1163.6 338.656ZM1163.6 352.37C1162.87 352.37 1162.17 352.155 1161.56 351.753C1160.96 351.352 1160.49 350.78 1160.22 350.112C1159.94 349.444 1159.87 348.709 1160.01 347.999C1160.15 347.29 1160.5 346.638 1161.01 346.127C1161.52 345.615 1162.17 345.267 1162.88 345.126C1163.59 344.985 1164.33 345.057 1164.99 345.334C1165.66 345.611 1166.23 346.079 1166.64 346.681C1167.04 347.282 1167.25 347.989 1167.25 348.713C1167.25 349.682 1166.87 350.612 1166.18 351.297C1165.49 351.983 1164.56 352.369 1163.6 352.37Z" fill="#E93565"/>
<path d="M1085.88 490.426C1083.22 490.429 1080.66 491.489 1078.77 493.375C1076.89 495.26 1075.83 497.816 1075.82 500.483C1075.82 502.662 1076.53 504.781 1077.85 506.517C1077.85 506.517 1078.13 506.878 1078.17 506.93L1085.88 516.025L1093.6 506.926C1093.64 506.877 1093.91 506.517 1093.91 506.517L1093.91 506.514C1095.23 504.779 1095.94 502.661 1095.94 500.483C1095.94 497.816 1094.88 495.26 1092.99 493.375C1091.1 491.489 1088.55 490.429 1085.88 490.426ZM1085.88 504.14C1085.16 504.14 1084.45 503.925 1083.85 503.523C1083.25 503.122 1082.78 502.55 1082.5 501.882C1082.23 501.214 1082.15 500.479 1082.29 499.769C1082.44 499.06 1082.78 498.408 1083.3 497.897C1083.81 497.385 1084.46 497.037 1085.17 496.896C1085.88 496.755 1086.61 496.827 1087.28 497.104C1087.95 497.381 1088.52 497.849 1088.92 498.451C1089.32 499.052 1089.54 499.759 1089.54 500.483C1089.54 501.452 1089.15 502.382 1088.47 503.067C1087.78 503.753 1086.85 504.139 1085.88 504.14Z" fill="#E93565"/>
<path d="M981.654 676.938C978.988 676.941 976.432 678.002 974.546 679.887C972.661 681.773 971.6 684.329 971.597 686.995C971.594 689.174 972.306 691.294 973.623 693.029C973.623 693.029 973.898 693.39 973.942 693.443L981.654 702.538L989.37 693.438C989.41 693.39 989.685 693.029 989.685 693.029L989.686 693.027C991.003 691.292 991.715 689.173 991.711 686.995C991.708 684.329 990.648 681.773 988.762 679.887C986.877 678.002 984.321 676.941 981.654 676.938ZM981.654 690.652C980.931 690.652 980.224 690.438 979.623 690.036C979.021 689.634 978.552 689.063 978.276 688.395C977.999 687.726 977.926 686.991 978.068 686.282C978.209 685.572 978.557 684.921 979.068 684.409C979.58 683.898 980.231 683.549 980.941 683.408C981.65 683.267 982.386 683.34 983.054 683.616C983.722 683.893 984.293 684.362 984.695 684.963C985.097 685.565 985.311 686.272 985.311 686.995C985.31 687.965 984.925 688.894 984.239 689.58C983.553 690.265 982.624 690.651 981.654 690.652Z" fill="#E93565"/>
<path d="M942.341 492.254C939.674 492.257 937.118 493.318 935.233 495.203C933.347 497.089 932.287 499.645 932.283 502.311C932.28 504.49 932.992 506.61 934.309 508.345C934.309 508.345 934.584 508.707 934.629 508.759L942.341 517.854L950.056 508.754C950.096 508.706 950.372 508.345 950.372 508.345L950.372 508.343C951.689 506.608 952.401 504.489 952.398 502.311C952.394 499.645 951.334 497.089 949.448 495.203C947.563 493.318 945.007 492.257 942.341 492.254ZM942.341 505.968C941.617 505.968 940.91 505.754 940.309 505.352C939.707 504.95 939.239 504.379 938.962 503.711C938.685 503.042 938.613 502.307 938.754 501.598C938.895 500.888 939.243 500.237 939.755 499.725C940.266 499.214 940.918 498.865 941.627 498.724C942.336 498.583 943.072 498.656 943.74 498.932C944.408 499.209 944.979 499.678 945.381 500.279C945.783 500.881 945.998 501.588 945.998 502.311C945.996 503.281 945.611 504.21 944.925 504.896C944.24 505.581 943.31 505.967 942.341 505.968Z" fill="#E93565"/>
<path d="M1159.02 260.028C1156.36 260.031 1153.8 261.092 1151.92 262.977C1150.03 264.862 1148.97 267.418 1148.97 270.085C1148.96 272.264 1149.68 274.384 1150.99 276.119C1150.99 276.119 1151.27 276.48 1151.31 276.532L1159.02 285.628L1166.74 276.528C1166.78 276.479 1167.06 276.119 1167.06 276.119L1167.06 276.116C1168.37 274.382 1169.08 272.263 1169.08 270.085C1169.08 267.418 1168.02 264.862 1166.13 262.977C1164.25 261.092 1161.69 260.031 1159.02 260.028ZM1159.02 273.742C1158.3 273.742 1157.59 273.527 1156.99 273.126C1156.39 272.724 1155.92 272.153 1155.65 271.484C1155.37 270.816 1155.3 270.081 1155.44 269.371C1155.58 268.662 1155.93 268.01 1156.44 267.499C1156.95 266.987 1157.6 266.639 1158.31 266.498C1159.02 266.357 1159.76 266.429 1160.42 266.706C1161.09 266.983 1161.66 267.452 1162.06 268.053C1162.47 268.654 1162.68 269.362 1162.68 270.085C1162.68 271.054 1162.29 271.984 1161.61 272.669C1160.92 273.355 1159.99 273.741 1159.02 273.742Z" fill="#E93565"/>
<path d="M-48 339.591L134.116 528.662L114.116 540.662L-48 339.591Z" fill="url(#paint3_linear_1_212)" fill-opacity="0.5"/>
<circle cx="125.116" cy="536.662" r="12" fill="url(#paint4_linear_1_212)"/>
<path d="M321 588.591L503.116 777.662L483.116 789.662L321 588.591Z" fill="url(#paint5_linear_1_212)" fill-opacity="0.5"/>
<circle cx="494.116" cy="785.662" r="12" fill="url(#paint6_linear_1_212)"/>
<path d="M863 31.591L1045.12 220.662L1025.12 232.662L863 31.591Z" fill="url(#paint7_linear_1_212)" fill-opacity="0.5"/>
<circle cx="1036.12" cy="228.662" r="12" fill="url(#paint8_linear_1_212)"/>
<path d="M720 355.591L902.116 544.662L882.116 556.662L720 355.591Z" fill="url(#paint9_linear_1_212)" fill-opacity="0.5"/>
<circle cx="893.116" cy="552.662" r="12" fill="url(#paint10_linear_1_212)"/>
<path fill-rule="evenodd" clip-rule="evenodd" d="M1168.77 956.453C1143.99 889.686 1099.73 814.935 1135.88 753.58C1171.98 692.333 1261.98 708.03 1329.06 684.484C1407.09 657.091 1485.04 561.934 1554.66 606.58C1624.92 651.638 1565.86 763.92 1580.94 846.014C1593.62 915.091 1662.23 976.933 1634.54 1041.48C1605.91 1108.2 1524.07 1132.85 1452.53 1145.31C1387.61 1156.62 1321.41 1142.1 1266.55 1105.59C1215.11 1071.35 1190.28 1014.39 1168.77 956.453Z" fill="url(#paint11_linear_1_212)" fill-opacity="0.5"/>
<path fill-rule="evenodd" clip-rule="evenodd" d="M1612.83 895.751C1541.71 899.452 1457.14 919.356 1409.4 866.514C1361.73 813.767 1403.61 732.572 1401.18 661.522C1398.36 578.865 1330.84 476.047 1394.25 422.949C1458.25 369.363 1547.75 459.276 1630.6 469.418C1700.31 477.952 1779.83 430.965 1833.15 476.676C1888.27 523.935 1887.33 609.402 1877.85 681.39C1869.25 746.726 1835.61 805.562 1784.37 847.005C1736.32 885.868 1674.54 892.54 1612.83 895.751Z" fill="url(#paint12_linear_1_212)" fill-opacity="0.5"/>
<defs>
<filter id="filter0_i_1_212" x="55" y="115" width="16" height="20" filterUnits="userSpaceOnUse" color-interpolation-filters="sRGB">
<feFlood flood-opacity="0" result="BackgroundImageFix"/>
<feBlend mode="normal" in="SourceGraphic" in2="BackgroundImageFix" result="shape"/>
<feColorMatrix in="SourceAlpha" type="matrix" values="0 0 0 0 0 0 0 0 0 0 0 0 0 0 0 0 0 0 127 0" result="hardAlpha"/>
<feOffset dy="4"/>
<feGaussianBlur stdDeviation="2"/>
<feComposite in2="hardAlpha" operator="arithmetic" k2="-1" k3="1"/>
<feColorMatrix type="matrix" values="0 0 0 0 0 0 0 0 0 0 0 0 0 0 0 0 0 0 0.25 0"/>
<feBlend mode="normal" in2="shape" result="effect1_innerShadow_1_212"/>
</filter>
<filter id="filter1_i_1_212" x="6" y="120" width="16" height="20" filterUnits="userSpaceOnUse" color-interpolation-filters="sRGB">
<feFlood flood-opacity="0" result="BackgroundImageFix"/>
<feBlend mode="normal" in="SourceGraphic" in2="BackgroundImageFix" result="shape"/>
<feColorMatrix in="SourceAlpha" type="matrix" values="0 0 0 0 0 0 0 0 0 0 0 0 0 0 0 0 0 0 127 0" result="hardAlpha"/>
<feOffset dy="4"/>
<feGaussianBlur stdDeviation="2"/>
<feComposite in2="hardAlpha" operator="arithmetic" k2="-1" k3="1"/>
<feColorMatrix type="matrix" values="0 0 0 0 0 0 0 0 0 0 0 0 0 0 0 0 0 0 0.25 0"/>
<feBlend mode="normal" in2="shape" result="effect1_innerShadow_1_212"/>
</filter>
<filter id="filter2_i_1_212" x="2" y="192" width="16" height="20" filterUnits="userSpaceOnUse" color-interpolation-filters="sRGB">
<feFlood flood-opacity="0" result="BackgroundImageFix"/>
<feBlend mode="normal" in="SourceGraphic" in2="BackgroundImageFix" result="shape"/>
<feColorMatrix in="SourceAlpha" type="matrix" values="0 0 0 0 0 0 0 0 0 0 0 0 0 0 0 0 0 0 127 0" result="hardAlpha"/>
<feOffset dy="4"/>
<feGaussianBlur stdDeviation="2"/>
<feComposite in2="hardAlpha" operator="arithmetic" k2="-1" k3="1"/>
<feColorMatrix type="matrix" values="0 0 0 0 0 0 0 0 0 0 0 0 0 0 0 0 0 0 0.25 0"/>
<feBlend mode="normal" in2="shape" result="effect1_innerShadow_1_212"/>
</filter>
<filter id="filter3_i_1_212" x="93" y="146" width="16" height="20" filterUnits="userSpaceOnUse" color-interpolation-filters="sRGB">
<feFlood flood-opacity="0" result="BackgroundImageFix"/>
<feBlend mode="normal" in="SourceGraphic" in2="BackgroundImageFix" result="shape"/>
<feColorMatrix in="SourceAlpha" type="matrix" values="0 0 0 0 0 0 0 0 0 0 0 0 0 0 0 0 0 0 127 0" result="hardAlpha"/>
<feOffset dy="4"/>
<feGaussianBlur stdDeviation="2"/>
<feComposite in2="hardAlpha" operator="arithmetic" k2="-1" k3="1"/>
<feColorMatrix type="matrix" values="0 0 0 0 0 0 0 0 0 0 0 0 0 0 0 0 0 0 0.25 0"/>
<feBlend mode="normal" in2="shape" result="effect1_innerShadow_1_212"/>
</filter>
<filter id="filter4_i_1_212" x="81" y="200" width="16" height="20" filterUnits="userSpaceOnUse" color-interpolation-filters="sRGB">
<feFlood flood-opacity="0" result="BackgroundImageFix"/>
<feBlend mode="normal" in="SourceGraphic" in2="BackgroundImageFix" result="shape"/>
<feColorMatrix in="SourceAlpha" type="matrix" values="0 0 0 0 0 0 0 0 0 0 0 0 0 0 0 0 0 0 127 0" result="hardAlpha"/>
<feOffset dy="4"/>
<feGaussianBlur stdDeviation="2"/>
<feComposite in2="hardAlpha" operator="arithmetic" k2="-1" k3="1"/>
<feColorMatrix type="matrix" values="0 0 0 0 0 0 0 0 0 0 0 0 0 0 0 0 0 0 0.25 0"/>
<feBlend mode="normal" in2="shape" result="effect1_innerShadow_1_212"/>
</filter>
<filter id="filter5_i_1_212" x="42" y="158" width="16" height="20" filterUnits="userSpaceOnUse" color-interpolation-filters="sRGB">
<feFlood flood-opacity="0" result="BackgroundImageFix"/>
<feBlend mode="normal" in="SourceGraphic" in2="BackgroundImageFix" result="shape"/>
<feColorMatrix in="SourceAlpha" type="matrix" values="0 0 0 0 0 0 0 0 0 0 0 0 0 0 0 0 0 0 127 0" result="hardAlpha"/>
<feOffset dy="4"/>
<feGaussianBlur stdDeviation="2"/>
<feComposite in2="hardAlpha" operator="arithmetic" k2="-1" k3="1"/>
<feColorMatrix type="matrix" values="0 0 0 0 0 0 0 0 0 0 0 0 0 0 0 0 0 0 0.25 0"/>
<feBlend mode="normal" in2="shape" result="effect1_innerShadow_1_212"/>
</filter>
<filter id="filter6_i_1_212" x="-33" y="160" width="91.5" height="93" filterUnits="userSpaceOnUse" color-interpolation-filters="sRGB">
<feFlood flood-opacity="0" result="BackgroundImageFix"/>
<feBlend mode="normal" in="SourceGraphic" in2="BackgroundImageFix" result="shape"/>
<feColorMatrix in="SourceAlpha" type="matrix" values="0 0 0 0 0 0 0 0 0 0 0 0 0 0 0 0 0 0 127 0" result="hardAlpha"/>
<feOffset dy="4"/>
<feGaussianBlur stdDeviation="2"/>
<feComposite in2="hardAlpha" operator="arithmetic" k2="-1" k3="1"/>
<feColorMatrix type="matrix" values="0 0 0 0 0 0 0 0 0 0 0 0 0 0 0 0 0 0 0.25 0"/>
<feBlend mode="normal" in2="shape" result="effect1_innerShadow_1_212"/>
</filter>
<filter id="filter7_f_1_212" x="519.057" y="1.42673" width="961.263" height="1051.03" filterUnits="userSpaceOnUse" color-interpolation-filters="sRGB">
<feFlood flood-opacity="0" result="BackgroundImageFix"/>
<feBlend mode="normal" in="SourceGraphic" in2="BackgroundImageFix" result="shape"/>
<feGaussianBlur stdDeviation="128" result="effect1_foregroundBlur_1_212"/>
</filter>
<filter id="filter8_d_1_212" x="659.879" y="159.5" width="755.621" height="651.04" filterUnits="userSpaceOnUse" color-interpolation-filters="sRGB">
<feFlood flood-opacity="0" result="BackgroundImageFix"/>
<feColorMatrix in="SourceAlpha" type="matrix" values="0 0 0 0 0 0 0 0 0 0 0 0 0 0 0 0 0 0 127 0" result="hardAlpha"/>
<feOffset dy="12"/>
<feGaussianBlur stdDeviation="12.5"/>
<feComposite in2="hardAlpha" operator="out"/>
<feColorMatrix type="matrix" values="0 0 0 0 0.0627451 0 0 0 0 0.137255 0 0 0 0 0.258824 0 0 0 0.3 0"/>
<feBlend mode="normal" in2="BackgroundImageFix" result="effect1_dropShadow_1_212"/>
<feBlend mode="normal" in="SourceGraphic" in2="effect1_dropShadow_1_212" result="shape"/>
</filter>
<linearGradient id="paint0_linear_1_212" x1="39" y1="83" x2="39" y2="273" gradientUnits="userSpaceOnUse">
<stop stop-color="#E93565"/>
<stop offset="1" stop-color="#621F4E"/>
</linearGradient>
<linearGradient id="paint1_linear_1_212" x1="1233.62" y1="168.235" x2="863.028" y2="900.327" gradientUnits="userSpaceOnUse">
<stop stop-color="#E93565"/>
<stop offset="1" stop-color="#621F4E"/>
</linearGradient>
<linearGradient id="paint2_linear_1_212" x1="-178.742" y1="700.308" x2="67.9711" y2="1127.63" gradientUnits="userSpaceOnUse">
<stop stop-color="#E93565"/>
<stop offset="1" stop-color="#BC2B5D"/>
</linearGradient>
<linearGradient id="paint3_linear_1_212" x1="64.0713" y1="433.675" x2="122.909" y2="535.585" gradientUnits="userSpaceOnUse">
<stop stop-color="#E93565"/>
<stop offset="1" stop-color="#BC2B5D"/>
</linearGradient>
<linearGradient id="paint4_linear_1_212" x1="125.116" y1="524.662" x2="125.116" y2="548.662" gradientUnits="userSpaceOnUse">
<stop stop-color="#E93565"/>
<stop offset="1" stop-color="#621F4E"/>
</linearGradient>
<linearGradient id="paint5_linear_1_212" x1="433.071" y1="682.675" x2="491.909" y2="784.585" gradientUnits="userSpaceOnUse">
<stop stop-color="#E93565"/>
<stop offset="1" stop-color="#BC2B5D"/>
</linearGradient>
<linearGradient id="paint6_linear_1_212" x1="494.116" y1="773.662" x2="494.116" y2="797.662" gradientUnits="userSpaceOnUse">
<stop stop-color="#E93565"/>
<stop offset="1" stop-color="#621F4E"/>
</linearGradient>
<linearGradient id="paint7_linear_1_212" x1="975.071" y1="125.675" x2="1033.91" y2="227.585" gradientUnits="userSpaceOnUse">
<stop stop-color="#E93565"/>
<stop offset="1" stop-color="#BC2B5D"/>
</linearGradient>
<linearGradient id="paint8_linear_1_212" x1="1036.12" y1="216.662" x2="1036.12" y2="240.662" gradientUnits="userSpaceOnUse">
<stop stop-color="#E93565"/>
<stop offset="1" stop-color="#621F4E"/>
</linearGradient>
<linearGradient id="paint9_linear_1_212" x1="832.071" y1="449.675" x2="890.909" y2="551.585" gradientUnits="userSpaceOnUse">
<stop stop-color="#E93565"/>
<stop offset="1" stop-color="#BC2B5D"/>
</linearGradient>
<linearGradient id="paint10_linear_1_212" x1="893.116" y1="540.662" x2="893.116" y2="564.662" gradientUnits="userSpaceOnUse">
<stop stop-color="#E93565"/>
<stop offset="1" stop-color="#621F4E"/>
</linearGradient>
<linearGradient id="paint11_linear_1_212" x1="1157.41" y1="957.297" x2="1634.03" y2="829.589" gradientUnits="userSpaceOnUse">
<stop stop-color="#E93565"/>
<stop offset="1" stop-color="#BC2B5D"/>
</linearGradient>
<linearGradient id="paint12_linear_1_212" x1="1610.24" y1="906.845" x2="1630.79" y2="413.847" gradientUnits="userSpaceOnUse">
<stop stop-color="#E93565"/>
<stop offset="1" stop-color="#BC2B5D"/>
</linearGradient>
</defs>
</svg>
