<svg width="280" height="280" viewBox="0 0 280 280" fill="none" xmlns="http://www.w3.org/2000/svg">
<rect x="1.5" y="1.5" width="277" height="277" fill="#102342"/>
<path d="M226.271 177.973H221.605L219.133 165.278V66.5542C219.133 66.3779 219.113 66.1337 219.075 65.9319L214.338 40.689V29.5133C214.338 28.1254 213.513 27 212.493 27C211.474 27 210.648 28.1254 210.648 29.5133V40.6909L205.921 65.9333C205.883 66.1341 205.863 66.3774 205.863 66.5542V165.278L203.725 176.26L196.357 168.819L186.233 148.209V82.5448C186.233 82.3685 186.213 82.1243 186.175 81.9225L182.256 61.0401V54.8259C182.256 53.438 181.431 52.3126 180.412 52.3126C179.392 52.3126 178.567 53.438 178.567 54.8259V61.0415L174.655 81.9235C174.617 82.1243 174.597 82.3676 174.597 82.5444V129.212L149.788 116.958V96.05C149.788 94.0218 148.104 92.8234 146.884 93.9931L139.561 100.993L132.232 93.9916C131.006 92.8267 129.328 94.0199 129.328 96.0495V116.96L104.518 129.212V82.5448C104.518 82.368 104.498 82.1248 104.46 81.9239L100.549 61.042V54.8264C100.549 53.4385 99.7235 52.3131 98.7037 52.3131C97.6838 52.3131 96.8588 53.4385 96.8588 54.8264V61.0406L92.9399 81.923C92.9025 82.1229 92.8821 82.368 92.8821 82.5453V148.209L82.7583 168.819L75.3912 176.26L73.2528 165.278V66.5542C73.2528 66.3774 73.2328 66.1341 73.195 65.9333L68.4674 40.6909V29.5133C68.4674 28.1254 67.6424 27 66.6225 27C65.6027 27 64.7776 28.1254 64.7776 29.5133V40.689L60.041 65.9319C60.0036 66.1318 59.9832 66.3769 59.9832 66.5542V165.278L57.5113 177.973H52.8449C51.825 177.973 51 179.099 51 180.487C51 181.875 51.825 183 52.8449 183C84.2958 183 190.16 183 226.271 183C227.291 183 228.116 181.875 228.116 180.487C228.116 179.099 227.291 177.973 226.271 177.973ZM209.553 69.0675H215.443V163.094H209.553V69.0675ZM212.495 51.1609L214.911 64.0409H210.083L212.495 51.1609ZM188.15 166.788V177.972H181.747V160.32L188.15 166.788ZM178.057 177.972H171.663V150.135L178.057 156.594V177.972ZM167.973 177.972H161.579V139.95L167.973 146.408V177.972ZM157.889 177.972H151.487V129.758L157.889 136.223V177.972ZM137.713 119.573V177.972H131.319V126.031L137.713 119.573ZM141.403 119.573L147.797 126.031V177.972H141.403V119.573ZM127.629 177.972H121.227V136.223L127.629 129.758V177.972ZM117.537 177.972H111.143V146.408L117.537 139.95V177.972ZM107.453 177.972H101.059V156.594L107.453 150.135V177.972ZM97.3689 177.972H90.9656V166.788L97.3689 160.32V177.972ZM87.2758 170.515V177.972H79.8921L87.2758 170.515ZM191.84 177.972V170.515L199.223 177.972H191.84ZM150.797 122.803L175.246 134.88L187.547 159.92L150.797 122.803ZM178.288 132.034V85.0586H182.543V140.698L178.288 132.034ZM180.414 71.512L182.012 80.0315H178.817L180.414 71.512ZM133.018 100.884L138.502 106.123C139.14 106.729 139.987 106.731 140.621 106.122L146.098 100.885V115.136C144.043 114.121 139.943 112.109 140.159 112.211C139.505 111.903 139.016 112.2 138.829 112.269L133.018 115.139V100.884H133.018ZM98.7023 71.512L100.299 80.0315H97.1041L98.7023 71.512ZM96.5726 85.0586H100.828V132.034L96.5726 140.697V85.0586ZM103.869 134.88L128.314 122.808L91.5688 159.92L103.869 134.88ZM63.6733 69.0675H69.5631V163.094H63.6733V69.0675ZM66.6208 51.1609L69.0332 64.0409H64.2045L66.6208 51.1609ZM61.3291 177.973L63.248 168.121H69.9884L71.9073 177.973H61.3291ZM207.209 177.973L209.128 168.121H215.868L217.787 177.973H207.209Z" fill="url(#paint0_linear_3_259)"/>
<path d="M40.896 246H36.576V222.864H40.896V246ZM61.596 227.072C61.468 227.296 61.3293 227.461 61.18 227.568C61.0413 227.664 60.8653 227.712 60.652 227.712C60.428 227.712 60.1827 227.632 59.916 227.472C59.66 227.301 59.3507 227.115 58.988 226.912C58.6253 226.709 58.1987 226.528 57.708 226.368C57.228 226.197 56.6573 226.112 55.996 226.112C55.3987 226.112 54.876 226.187 54.428 226.336C53.98 226.475 53.6013 226.672 53.292 226.928C52.9933 227.184 52.7693 227.493 52.62 227.856C52.4707 228.208 52.396 228.597 52.396 229.024C52.396 229.568 52.5453 230.021 52.844 230.384C53.1533 230.747 53.5587 231.056 54.06 231.312C54.5613 231.568 55.132 231.797 55.772 232C56.412 232.203 57.068 232.421 57.74 232.656C58.412 232.88 59.068 233.147 59.708 233.456C60.348 233.755 60.9187 234.139 61.42 234.608C61.9213 235.067 62.3213 235.632 62.62 236.304C62.9293 236.976 63.084 237.792 63.084 238.752C63.084 239.797 62.9027 240.779 62.54 241.696C62.188 242.603 61.6653 243.397 60.972 244.08C60.2893 244.752 59.452 245.285 58.46 245.68C57.468 246.064 56.332 246.256 55.052 246.256C54.316 246.256 53.5907 246.181 52.876 246.032C52.1613 245.893 51.4733 245.691 50.812 245.424C50.1613 245.157 49.548 244.837 48.972 244.464C48.396 244.091 47.884 243.675 47.436 243.216L48.7 241.152C48.8067 241.003 48.9453 240.88 49.116 240.784C49.2867 240.677 49.468 240.624 49.66 240.624C49.9267 240.624 50.2147 240.736 50.524 240.96C50.8333 241.173 51.2013 241.413 51.628 241.68C52.0547 241.947 52.5507 242.192 53.116 242.416C53.692 242.629 54.38 242.736 55.18 242.736C56.4067 242.736 57.356 242.448 58.028 241.872C58.7 241.285 59.036 240.448 59.036 239.36C59.036 238.752 58.8813 238.256 58.572 237.872C58.2733 237.488 57.8733 237.168 57.372 236.912C56.8707 236.645 56.3 236.421 55.66 236.24C55.02 236.059 54.3693 235.861 53.708 235.648C53.0467 235.435 52.396 235.179 51.756 234.88C51.116 234.581 50.5453 234.192 50.044 233.712C49.5427 233.232 49.1373 232.635 48.828 231.92C48.5293 231.195 48.38 230.304 48.38 229.248C48.38 228.405 48.5453 227.584 48.876 226.784C49.2173 225.984 49.708 225.275 50.348 224.656C50.988 224.037 51.7773 223.541 52.716 223.168C53.6547 222.795 54.732 222.608 55.948 222.608C57.3133 222.608 58.572 222.821 59.724 223.248C60.876 223.675 61.8573 224.272 62.668 225.04L61.596 227.072ZM83.5905 242.448V246H70.0385V222.864H74.3425V242.448H83.5905ZM102.087 237.264L99.2715 229.568C99.1328 229.227 98.9888 228.821 98.8395 228.352C98.6902 227.883 98.5408 227.376 98.3915 226.832C98.2528 227.376 98.1088 227.888 97.9595 228.368C97.8102 228.837 97.6662 229.248 97.5275 229.6L94.7275 237.264H102.087ZM109.688 246H106.359C105.986 246 105.682 245.909 105.448 245.728C105.213 245.536 105.037 245.301 104.919 245.024L103.191 240.304H93.6075L91.8795 245.024C91.7942 245.269 91.6288 245.493 91.3835 245.696C91.1382 245.899 90.8342 246 90.4715 246H87.1115L96.2155 222.864H100.599L109.688 246ZM140.37 222.864V246H136.578V231.056C136.578 230.459 136.61 229.813 136.674 229.12L129.682 242.256C129.352 242.885 128.845 243.2 128.162 243.2H127.554C126.872 243.2 126.365 242.885 126.034 242.256L118.962 229.072C118.994 229.424 119.021 229.771 119.042 230.112C119.064 230.453 119.074 230.768 119.074 231.056V246H115.282V222.864H118.53C118.722 222.864 118.888 222.869 119.026 222.88C119.165 222.891 119.288 222.917 119.394 222.96C119.512 223.003 119.613 223.072 119.698 223.168C119.794 223.264 119.885 223.392 119.97 223.552L126.898 236.4C127.08 236.741 127.245 237.093 127.394 237.456C127.554 237.819 127.709 238.192 127.858 238.576C128.008 238.181 128.162 237.803 128.322 237.44C128.482 237.067 128.653 236.709 128.834 236.368L135.666 223.552C135.752 223.392 135.842 223.264 135.938 223.168C136.034 223.072 136.136 223.003 136.242 222.96C136.36 222.917 136.488 222.891 136.626 222.88C136.765 222.869 136.93 222.864 137.122 222.864H140.37ZM160.956 237.264L158.14 229.568C158.002 229.227 157.858 228.821 157.708 228.352C157.559 227.883 157.41 227.376 157.26 226.832C157.122 227.376 156.978 227.888 156.828 228.368C156.679 228.837 156.535 229.248 156.396 229.6L153.596 237.264H160.956ZM168.556 246H165.228C164.855 246 164.551 245.909 164.316 245.728C164.082 245.536 163.906 245.301 163.788 245.024L162.06 240.304H152.476L150.748 245.024C150.663 245.269 150.498 245.493 150.252 245.696C150.007 245.899 149.703 246 149.34 246H145.98L155.084 222.864H159.468L168.556 246ZM182.807 242.64C183.607 242.64 184.279 242.544 184.823 242.352C185.367 242.16 185.799 241.904 186.119 241.584C186.45 241.264 186.684 240.891 186.823 240.464C186.972 240.037 187.047 239.584 187.047 239.104C187.047 238.603 186.967 238.155 186.807 237.76C186.647 237.355 186.396 237.013 186.055 236.736C185.714 236.448 185.271 236.229 184.727 236.08C184.194 235.931 183.548 235.856 182.791 235.856H178.455V242.64H182.807ZM178.455 226.192V232.88H181.879C183.351 232.88 184.46 232.613 185.207 232.08C185.964 231.547 186.343 230.699 186.343 229.536C186.343 228.331 186.002 227.472 185.319 226.96C184.636 226.448 183.57 226.192 182.119 226.192H178.455ZM182.119 222.864C183.634 222.864 184.93 223.008 186.007 223.296C187.084 223.584 187.964 223.995 188.647 224.528C189.34 225.061 189.847 225.707 190.167 226.464C190.487 227.221 190.647 228.075 190.647 229.024C190.647 229.568 190.567 230.091 190.407 230.592C190.247 231.083 189.996 231.547 189.655 231.984C189.324 232.411 188.898 232.8 188.375 233.152C187.863 233.504 187.25 233.803 186.535 234.048C189.714 234.763 191.303 236.48 191.303 239.2C191.303 240.181 191.116 241.088 190.743 241.92C190.37 242.752 189.826 243.472 189.111 244.08C188.396 244.677 187.516 245.147 186.471 245.488C185.426 245.829 184.231 246 182.887 246H174.151V222.864H182.119ZM210.262 237.264L207.446 229.568C207.308 229.227 207.164 228.821 207.014 228.352C206.865 227.883 206.716 227.376 206.566 226.832C206.428 227.376 206.284 227.888 206.134 228.368C205.985 228.837 205.841 229.248 205.702 229.6L202.902 237.264H210.262ZM217.862 246H214.534C214.161 246 213.857 245.909 213.622 245.728C213.388 245.536 213.212 245.301 213.094 245.024L211.366 240.304H201.782L200.054 245.024C199.969 245.269 199.804 245.493 199.558 245.696C199.313 245.899 199.009 246 198.646 246H195.286L204.39 222.864H208.774L217.862 246ZM244.001 234.432C244.001 236.128 243.719 237.685 243.153 239.104C242.588 240.523 241.793 241.744 240.769 242.768C239.745 243.792 238.513 244.587 237.073 245.152C235.633 245.717 234.033 246 232.273 246H223.457V222.864H232.273C234.033 222.864 235.633 223.152 237.073 223.728C238.513 224.293 239.745 225.088 240.769 226.112C241.793 227.125 242.588 228.341 243.153 229.76C243.719 231.179 244.001 232.736 244.001 234.432ZM239.585 234.432C239.585 233.163 239.415 232.027 239.073 231.024C238.743 230.011 238.257 229.157 237.617 228.464C236.988 227.76 236.22 227.221 235.313 226.848C234.417 226.475 233.404 226.288 232.273 226.288H227.777V242.576H232.273C233.404 242.576 234.417 242.389 235.313 242.016C236.22 241.643 236.988 241.109 237.617 240.416C238.257 239.712 238.743 238.859 239.073 237.856C239.415 236.843 239.585 235.701 239.585 234.432Z" fill="white"/>
<rect x="1.5" y="1.5" width="277" height="277" stroke="url(#paint1_linear_3_259)" stroke-width="3"/>
<defs>
<linearGradient id="paint0_linear_3_259" x1="139.558" y1="27" x2="139.558" y2="183" gradientUnits="userSpaceOnUse">
<stop stop-color="#E93565"/>
<stop offset="1" stop-color="#BC2B5D"/>
</linearGradient>
<linearGradient id="paint1_linear_3_259" x1="0" y1="0" x2="280" y2="289.52" gradientUnits="userSpaceOnUse">
<stop stop-color="#E93565"/>
<stop offset="0.807292" stop-color="#621F4E" stop-opacity="0"/>
</linearGradient>
</defs>
</svg>
