<svg width="280" height="280" viewBox="0 0 280 280" fill="none" xmlns="http://www.w3.org/2000/svg">
<rect x="1.5" y="1.5" width="277" height="277" fill="#102342"/>
<path d="M123.038 65.5123C119.155 65.5123 115.997 68.3149 115.997 71.7601V81.4004H130.079V71.7601C130.079 68.3149 126.921 65.5123 123.038 65.5123ZM126.389 78.1262H119.687V71.7601C119.687 70.1206 121.19 68.7864 123.038 68.7864C124.887 68.7864 126.39 70.1206 126.39 71.7601V78.1262H126.389ZM140.286 65.5123C136.403 65.5123 133.245 68.3149 133.245 71.7601V81.4004H147.325V71.7601C147.325 68.3149 144.167 65.5123 140.286 65.5123ZM143.635 78.1262H136.935V71.7601C136.935 70.1206 138.437 68.7864 140.286 68.7864C142.133 68.7864 143.635 70.1206 143.635 71.7601V78.1262ZM157.532 65.5123C153.649 65.5123 150.491 68.3149 150.491 71.7601V81.4004H164.573V71.7601C164.573 68.3149 161.415 65.5123 157.532 65.5123ZM160.883 78.1262H154.181V71.7601C154.181 70.1206 155.684 68.7864 157.532 68.7864C159.381 68.7864 160.883 70.1206 160.883 71.7601V78.1262H160.883Z" fill="url(#paint0_linear_3_269)"/>
<path d="M182.023 94.8734H174.643V98.147H182.023V94.8734Z" fill="url(#paint1_linear_3_269)"/>
<path d="M132.209 94.8734H124.829V98.147H132.209V94.8734Z" fill="url(#paint2_linear_3_269)"/>
<path d="M99.0003 94.8734H91.6199V98.147H99.0003V94.8734Z" fill="url(#paint3_linear_3_269)"/>
<path d="M148.814 94.8734H141.434V98.147H148.814V94.8734Z" fill="url(#paint4_linear_3_269)"/>
<path d="M165.419 94.8734H158.038V98.147H165.419V94.8734Z" fill="url(#paint5_linear_3_269)"/>
<path d="M115.605 94.8734H108.224V98.147H115.605V94.8734Z" fill="url(#paint6_linear_3_269)"/>
<path d="M162.437 103.36H155.056V106.633H162.437V103.36Z" fill="url(#paint7_linear_3_269)"/>
<path d="M143.989 103.36H136.609V106.633H143.989V103.36Z" fill="url(#paint8_linear_3_269)"/>
<path d="M125.54 103.36H118.159V106.633H125.54V103.36Z" fill="url(#paint9_linear_3_269)"/>
<path d="M180.888 103.36H173.508V106.633H180.888V103.36Z" fill="url(#paint10_linear_3_269)"/>
<path d="M107.088 103.36H99.7075V106.633H107.088V103.36Z" fill="url(#paint11_linear_3_269)"/>
<path d="M101.986 111.848H94.6052V115.122H101.986V111.848Z" fill="url(#paint12_linear_3_269)"/>
<path d="M118.59 111.848H111.21V115.122H118.59V111.848Z" fill="url(#paint13_linear_3_269)"/>
<path d="M183.452 111.848H176.072V115.122H183.452V111.848Z" fill="url(#paint14_linear_3_269)"/>
<path d="M166.847 111.848H159.467V115.122H166.847V111.848Z" fill="url(#paint15_linear_3_269)"/>
<path d="M112.76 120.335H105.38V123.608H112.76V120.335Z" fill="url(#paint16_linear_3_269)"/>
<path d="M94.2977 120.335H86.9172V123.608H94.2977V120.335Z" fill="url(#paint17_linear_3_269)"/>
<path d="M163.889 120.335H156.509V123.608H163.889V120.335Z" fill="url(#paint18_linear_3_269)"/>
<path d="M182.337 120.335H174.956V123.608H182.337V120.335Z" fill="url(#paint19_linear_3_269)"/>
<path d="M111.385 128.821H104.005V132.095H111.385V128.821Z" fill="url(#paint20_linear_3_269)"/>
<path d="M94.7806 128.821H87.4001V132.095H94.7806V128.821Z" fill="url(#paint21_linear_3_269)"/>
<path d="M168.3 128.821H160.919V132.095H168.3V128.821Z" fill="url(#paint22_linear_3_269)"/>
<path d="M184.904 128.821H177.524V132.095H184.904V128.821Z" fill="url(#paint23_linear_3_269)"/>
<path d="M92.4546 137.31H85.0741V140.583H92.4546V137.31Z" fill="url(#paint24_linear_3_269)"/>
<path d="M109.059 137.31H101.679V140.583H109.059V137.31Z" fill="url(#paint25_linear_3_269)"/>
<path d="M169.019 137.31H161.638V140.583H169.019V137.31Z" fill="url(#paint26_linear_3_269)"/>
<path d="M185.614 137.31H178.234V140.583H185.614V137.31Z" fill="url(#paint27_linear_3_269)"/>
<path d="M87.507 145.797H80.1266V149.07H87.507V145.797Z" fill="url(#paint28_linear_3_269)"/>
<path d="M105.955 145.797H98.5743V149.07H105.955V145.797Z" fill="url(#paint29_linear_3_269)"/>
<path d="M184.49 145.797H177.109V149.07H184.49V145.797Z" fill="url(#paint30_linear_3_269)"/>
<path d="M166.042 145.797H158.662V149.07H166.042V145.797Z" fill="url(#paint31_linear_3_269)"/>
<path d="M93.4939 85.4337H87.6001V88.7073H93.4939V85.4337Z" fill="url(#paint32_linear_3_269)"/>
<path d="M103.41 85.4337H97.5186V88.7073H103.41V85.4337Z" fill="url(#paint33_linear_3_269)"/>
<path d="M191.056 85.4337H183.855V88.7073H191.056V85.4337Z" fill="url(#paint34_linear_3_269)"/>
<path d="M179.496 85.4337H175.362V88.7073H179.496V85.4337Z" fill="url(#paint35_linear_3_269)"/>
<path d="M228.116 171.187H221.037V162.65H215.828V154.111H205.348L198.939 78.3118H187.064C187.1 77.7498 187.127 77.1742 187.127 76.5987C187.127 54.5533 166.783 36.5303 141.41 35.6933V27.5099H137.72V35.6933C112.351 36.5335 92.0106 54.5551 92.0106 76.5986C92.0106 77.1436 92.0295 77.7134 92.0647 78.3116H80.1968L73.7701 154.111H63.2896V162.65H58.0807V171.187H51V183H228.116V171.187ZM217.347 165.924V171.187H171.578V165.924C183.726 165.924 206.57 165.924 217.347 165.924ZM175.992 174.461V179.726H103.125V174.461H175.992ZM167.888 165.924V171.187H111.228V165.924H167.888ZM122.633 157.385C133.025 157.385 151.929 157.385 160.824 157.385V162.65H118.294V157.385H122.633ZM126.249 148.236C126.552 143.836 127.6 138.148 129.762 131.615C131.546 126.116 134.173 120.116 136.796 115C137.076 114.564 137.644 113.03 139.565 113.03C141.605 113.03 142.113 114.703 142.248 114.87C145.04 120.298 147.529 125.913 149.375 131.624C151.547 138.182 152.592 143.888 152.887 148.237C152.992 149.745 153.041 151.33 152.961 154.111H126.169C126.088 151.3 126.161 149.499 126.249 148.236ZM212.138 157.385V162.65H164.514V157.385C176.686 157.385 200.006 157.385 212.138 157.385ZM109.603 79.813V78.2951H95.7581C95.7203 77.6955 95.7005 77.1336 95.7005 76.5989C95.7005 72.8622 96.3466 69.2541 97.5317 65.8438C104.624 64.5315 147.791 57.2173 181.794 66.4139C182.856 69.6559 183.437 73.0693 183.437 76.5989C183.437 77.1625 183.41 77.73 183.372 78.2951H171.38L169.535 78.3118V79.813L168.191 86.9536H110.945L109.603 79.813ZM139.569 38.9273C158.002 38.9273 173.804 48.7445 180.286 62.6063C148.563 54.8636 110.365 60.313 99.0182 62.2433C105.605 48.5726 121.296 38.9273 139.569 38.9273ZM80.7766 115.122H85.3786V111.848H81.0543L81.4963 106.635H88.6417V103.361H81.7741C82.5745 94.0173 82.153 101.333 83.6202 81.5861H106.195L107.821 90.2279H171.315L172.943 81.5861H195.516L196.639 94.8738H191.242V98.148H196.916L197.357 103.361H191.959V106.635H197.633L198.074 111.848H192.675V115.122H198.351L198.792 120.335H193.412V123.609H199.069L199.509 128.821H194.127V132.095H199.786L200.227 137.309H194.844V140.583H200.503L200.944 145.796H195.559V149.07H201.221L201.647 154.111H156.63C156.685 152.178 156.759 150.779 156.57 148.037C156.254 143.406 155.159 137.478 152.919 130.711C151.065 124.975 148.962 120.257 146.394 115.122H150.24V111.848H144.487C143.279 110.535 141.509 109.756 139.565 109.756C137.635 109.756 135.872 110.524 134.646 111.848H127.813V115.122H132.72C131.852 116.862 131.035 118.601 130.266 120.335H123.823V123.609H128.865C128.141 125.36 127.481 127.099 126.88 128.822H120.609V132.096H125.776C125.205 133.911 124.713 135.646 124.311 137.309H118.287V140.583H123.624C123.266 142.365 123 144.1 122.811 145.796H117.027V149.07H122.53C122.409 151.57 122.436 151.427 122.507 154.111H77.4709L80.7766 115.122ZM66.9794 157.385C79.1219 157.385 102.471 157.385 114.604 157.385V162.65H66.9794V157.385ZM61.7707 165.924C72.5771 165.924 95.4086 165.924 107.538 165.924V171.187H61.7707V165.924ZM54.6899 174.461C67.8565 174.461 79.4819 174.461 99.4355 174.461V179.726H54.6899V174.461ZM224.426 179.726H179.682V174.461C193.008 174.461 204.048 174.461 224.426 174.461V179.726ZM195.236 62.0911C195.326 61.9288 197.53 58.1263 201.719 59.6195L203.096 56.582C200.007 55.4797 197.436 56.0249 195.505 57.1223C194.963 55.1431 193.529 53.1728 190.444 52.0728L189.068 55.112C193.139 56.5621 191.968 60.4453 191.824 60.8746L195.236 62.0911ZM213.07 35.6547L211.621 32.6427C208.564 33.801 207.176 35.7987 206.685 37.7882C204.724 36.7274 202.137 36.2359 199.083 37.3925L200.532 40.4045C204.566 38.8753 206.83 42.3564 207.072 42.7505L210.457 41.478C210.3 41.0423 209.034 37.183 213.07 35.6547ZM113.633 30.0392L112.257 27C109.172 28.0991 107.738 30.0703 107.196 32.0495C105.264 30.9536 102.695 30.4084 99.6051 31.5083L100.982 34.5476C105.052 33.0895 107.234 36.6196 107.464 37.0183L110.877 35.8017C110.817 35.6283 109.441 31.5324 113.633 30.0392ZM86.9623 54.9865L85.5858 51.9489C82.804 52.9409 81.46 54.6924 80.9175 56.4756C79.1337 55.5205 76.7969 55.0791 74.017 56.0712L75.3898 59.1104C78.9896 57.8299 80.9175 60.9514 81.121 61.3032L84.5371 60.0962C84.4075 59.7075 83.3732 56.2662 86.9623 54.9865ZM84.4777 34.9137L83.1011 31.8762C79.2869 33.2359 77.6492 35.7475 77.1231 38.1967C74.8349 36.7498 71.6945 35.9393 67.8784 37.3005L69.255 40.3389C74.4637 38.4836 77.2365 42.9617 77.5303 43.4733L80.9428 42.2566C80.8653 42.0359 79.1175 36.8249 84.4777 34.9137ZM170.861 30.1479V33.422C175.6 33.422 176.183 37.7194 176.232 38.2014L179.909 38.2094C179.96 37.7194 180.543 33.422 185.282 33.422V30.1479C181.736 30.1479 179.459 31.6227 178.071 33.4045C176.684 31.6227 174.407 30.1479 170.861 30.1479Z" fill="url(#paint36_linear_3_269)"/>
<path d="M65.88 232.56H66.888C67.2933 232.56 67.6293 232.507 67.896 232.4C68.1627 232.283 68.392 232.101 68.584 231.856L74.968 223.776C75.2347 223.435 75.512 223.2 75.8 223.072C76.0987 222.933 76.472 222.864 76.92 222.864H80.632L72.84 232.48C72.3813 233.067 71.9067 233.483 71.416 233.728C71.768 233.856 72.0827 234.037 72.36 234.272C72.648 234.496 72.92 234.795 73.176 235.168L81.208 246H77.416C76.904 246 76.52 245.931 76.264 245.792C76.0187 245.643 75.8107 245.429 75.64 245.152L69.096 236.608C68.8933 236.32 68.6587 236.117 68.392 236C68.1253 235.883 67.7413 235.824 67.24 235.824H65.88V246H61.576V222.864H65.88V232.56ZM98.9375 237.264L96.1215 229.568C95.9828 229.227 95.8388 228.821 95.6895 228.352C95.5402 227.883 95.3908 227.376 95.2415 226.832C95.1028 227.376 94.9588 227.888 94.8095 228.368C94.6602 228.837 94.5162 229.248 94.3775 229.6L91.5775 237.264H98.9375ZM106.538 246H103.21C102.836 246 102.532 245.909 102.298 245.728C102.063 245.536 101.887 245.301 101.77 245.024L100.042 240.304H90.4575L88.7295 245.024C88.6442 245.269 88.4788 245.493 88.2335 245.696C87.9882 245.899 87.6842 246 87.3215 246H83.9615L93.0655 222.864H97.4495L106.538 246ZM119.124 233.872C119.935 233.872 120.639 233.771 121.236 233.568C121.844 233.365 122.34 233.088 122.724 232.736C123.119 232.373 123.412 231.947 123.604 231.456C123.796 230.965 123.892 230.427 123.892 229.84C123.892 228.667 123.503 227.765 122.724 227.136C121.956 226.507 120.778 226.192 119.188 226.192H116.436V233.872H119.124ZM130.196 246H126.308C125.572 246 125.039 245.712 124.708 245.136L119.844 237.728C119.663 237.451 119.46 237.253 119.236 237.136C119.023 237.019 118.703 236.96 118.276 236.96H116.436V246H112.132V222.864H119.188C120.756 222.864 122.1 223.029 123.22 223.36C124.351 223.68 125.274 224.133 125.988 224.72C126.714 225.307 127.247 226.011 127.588 226.832C127.93 227.643 128.1 228.539 128.1 229.52C128.1 230.299 127.983 231.035 127.748 231.728C127.524 232.421 127.194 233.051 126.756 233.616C126.33 234.181 125.796 234.677 125.156 235.104C124.527 235.531 123.807 235.867 122.996 236.112C123.274 236.272 123.53 236.464 123.764 236.688C123.999 236.901 124.212 237.157 124.404 237.456L130.196 246ZM148.119 237.264L145.303 229.568C145.164 229.227 145.02 228.821 144.871 228.352C144.721 227.883 144.572 227.376 144.423 226.832C144.284 227.376 144.14 227.888 143.991 228.368C143.841 228.837 143.697 229.248 143.559 229.6L140.759 237.264H148.119ZM155.719 246H152.391C152.017 246 151.713 245.909 151.479 245.728C151.244 245.536 151.068 245.301 150.951 245.024L149.223 240.304H139.639L137.911 245.024C137.825 245.269 137.66 245.493 137.415 245.696C137.169 245.899 136.865 246 136.503 246H133.143L142.247 222.864H146.631L155.719 246ZM176.514 240.544C176.749 240.544 176.957 240.635 177.138 240.816L178.834 242.656C177.895 243.819 176.738 244.709 175.362 245.328C173.997 245.947 172.354 246.256 170.434 246.256C168.717 246.256 167.17 245.963 165.794 245.376C164.429 244.789 163.261 243.973 162.29 242.928C161.319 241.883 160.573 240.635 160.05 239.184C159.538 237.733 159.282 236.149 159.282 234.432C159.282 232.693 159.559 231.104 160.114 229.664C160.669 228.213 161.447 226.965 162.45 225.92C163.463 224.875 164.669 224.064 166.066 223.488C167.463 222.901 169.01 222.608 170.706 222.608C172.391 222.608 173.885 222.885 175.186 223.44C176.498 223.995 177.613 224.72 178.53 225.616L177.09 227.616C177.005 227.744 176.893 227.856 176.754 227.952C176.626 228.048 176.445 228.096 176.21 228.096C176.05 228.096 175.885 228.053 175.714 227.968C175.543 227.872 175.357 227.76 175.154 227.632C174.951 227.493 174.717 227.344 174.45 227.184C174.183 227.024 173.874 226.88 173.522 226.752C173.17 226.613 172.759 226.501 172.29 226.416C171.831 226.32 171.298 226.272 170.69 226.272C169.655 226.272 168.706 226.459 167.842 226.832C166.989 227.195 166.253 227.728 165.634 228.432C165.015 229.125 164.535 229.979 164.194 230.992C163.853 231.995 163.682 233.141 163.682 234.432C163.682 235.733 163.863 236.891 164.226 237.904C164.599 238.917 165.101 239.771 165.73 240.464C166.359 241.157 167.101 241.691 167.954 242.064C168.807 242.427 169.725 242.608 170.706 242.608C171.293 242.608 171.821 242.576 172.29 242.512C172.77 242.448 173.207 242.347 173.602 242.208C174.007 242.069 174.386 241.893 174.738 241.68C175.101 241.456 175.458 241.184 175.81 240.864C175.917 240.768 176.029 240.693 176.146 240.64C176.263 240.576 176.386 240.544 176.514 240.544ZM204.486 222.864V246H200.166V235.888H189.302V246H184.982V222.864H189.302V232.816H200.166V222.864H204.486ZM217.158 246H212.838V222.864H217.158V246Z" fill="white"/>
<rect x="1.5" y="1.5" width="277" height="277" stroke="url(#paint37_linear_3_269)" stroke-width="3"/>
<defs>
<linearGradient id="paint0_linear_3_269" x1="140.285" y1="65.5123" x2="140.285" y2="81.4004" gradientUnits="userSpaceOnUse">
<stop stop-color="#E93565"/>
<stop offset="1" stop-color="#BC2B5D"/>
</linearGradient>
<linearGradient id="paint1_linear_3_269" x1="178.333" y1="94.8734" x2="178.333" y2="98.147" gradientUnits="userSpaceOnUse">
<stop stop-color="#E93565"/>
<stop offset="1" stop-color="#BC2B5D"/>
</linearGradient>
<linearGradient id="paint2_linear_3_269" x1="128.519" y1="94.8734" x2="128.519" y2="98.147" gradientUnits="userSpaceOnUse">
<stop stop-color="#E93565"/>
<stop offset="1" stop-color="#BC2B5D"/>
</linearGradient>
<linearGradient id="paint3_linear_3_269" x1="95.3101" y1="94.8734" x2="95.3101" y2="98.147" gradientUnits="userSpaceOnUse">
<stop stop-color="#E93565"/>
<stop offset="1" stop-color="#BC2B5D"/>
</linearGradient>
<linearGradient id="paint4_linear_3_269" x1="145.124" y1="94.8734" x2="145.124" y2="98.147" gradientUnits="userSpaceOnUse">
<stop stop-color="#E93565"/>
<stop offset="1" stop-color="#BC2B5D"/>
</linearGradient>
<linearGradient id="paint5_linear_3_269" x1="161.728" y1="94.8734" x2="161.728" y2="98.147" gradientUnits="userSpaceOnUse">
<stop stop-color="#E93565"/>
<stop offset="1" stop-color="#BC2B5D"/>
</linearGradient>
<linearGradient id="paint6_linear_3_269" x1="111.915" y1="94.8734" x2="111.915" y2="98.147" gradientUnits="userSpaceOnUse">
<stop stop-color="#E93565"/>
<stop offset="1" stop-color="#BC2B5D"/>
</linearGradient>
<linearGradient id="paint7_linear_3_269" x1="158.746" y1="103.36" x2="158.746" y2="106.633" gradientUnits="userSpaceOnUse">
<stop stop-color="#E93565"/>
<stop offset="1" stop-color="#BC2B5D"/>
</linearGradient>
<linearGradient id="paint8_linear_3_269" x1="140.299" y1="103.36" x2="140.299" y2="106.633" gradientUnits="userSpaceOnUse">
<stop stop-color="#E93565"/>
<stop offset="1" stop-color="#BC2B5D"/>
</linearGradient>
<linearGradient id="paint9_linear_3_269" x1="121.849" y1="103.36" x2="121.849" y2="106.633" gradientUnits="userSpaceOnUse">
<stop stop-color="#E93565"/>
<stop offset="1" stop-color="#BC2B5D"/>
</linearGradient>
<linearGradient id="paint10_linear_3_269" x1="177.198" y1="103.36" x2="177.198" y2="106.633" gradientUnits="userSpaceOnUse">
<stop stop-color="#E93565"/>
<stop offset="1" stop-color="#BC2B5D"/>
</linearGradient>
<linearGradient id="paint11_linear_3_269" x1="103.398" y1="103.36" x2="103.398" y2="106.633" gradientUnits="userSpaceOnUse">
<stop stop-color="#E93565"/>
<stop offset="1" stop-color="#BC2B5D"/>
</linearGradient>
<linearGradient id="paint12_linear_3_269" x1="98.2955" y1="111.848" x2="98.2955" y2="115.122" gradientUnits="userSpaceOnUse">
<stop stop-color="#E93565"/>
<stop offset="1" stop-color="#BC2B5D"/>
</linearGradient>
<linearGradient id="paint13_linear_3_269" x1="114.9" y1="111.848" x2="114.9" y2="115.122" gradientUnits="userSpaceOnUse">
<stop stop-color="#E93565"/>
<stop offset="1" stop-color="#BC2B5D"/>
</linearGradient>
<linearGradient id="paint14_linear_3_269" x1="179.762" y1="111.848" x2="179.762" y2="115.122" gradientUnits="userSpaceOnUse">
<stop stop-color="#E93565"/>
<stop offset="1" stop-color="#BC2B5D"/>
</linearGradient>
<linearGradient id="paint15_linear_3_269" x1="163.157" y1="111.848" x2="163.157" y2="115.122" gradientUnits="userSpaceOnUse">
<stop stop-color="#E93565"/>
<stop offset="1" stop-color="#BC2B5D"/>
</linearGradient>
<linearGradient id="paint16_linear_3_269" x1="109.07" y1="120.335" x2="109.07" y2="123.608" gradientUnits="userSpaceOnUse">
<stop stop-color="#E93565"/>
<stop offset="1" stop-color="#BC2B5D"/>
</linearGradient>
<linearGradient id="paint17_linear_3_269" x1="90.6075" y1="120.335" x2="90.6075" y2="123.608" gradientUnits="userSpaceOnUse">
<stop stop-color="#E93565"/>
<stop offset="1" stop-color="#BC2B5D"/>
</linearGradient>
<linearGradient id="paint18_linear_3_269" x1="160.199" y1="120.335" x2="160.199" y2="123.608" gradientUnits="userSpaceOnUse">
<stop stop-color="#E93565"/>
<stop offset="1" stop-color="#BC2B5D"/>
</linearGradient>
<linearGradient id="paint19_linear_3_269" x1="178.647" y1="120.335" x2="178.647" y2="123.608" gradientUnits="userSpaceOnUse">
<stop stop-color="#E93565"/>
<stop offset="1" stop-color="#BC2B5D"/>
</linearGradient>
<linearGradient id="paint20_linear_3_269" x1="107.695" y1="128.821" x2="107.695" y2="132.095" gradientUnits="userSpaceOnUse">
<stop stop-color="#E93565"/>
<stop offset="1" stop-color="#BC2B5D"/>
</linearGradient>
<linearGradient id="paint21_linear_3_269" x1="91.0904" y1="128.821" x2="91.0904" y2="132.095" gradientUnits="userSpaceOnUse">
<stop stop-color="#E93565"/>
<stop offset="1" stop-color="#BC2B5D"/>
</linearGradient>
<linearGradient id="paint22_linear_3_269" x1="164.609" y1="128.821" x2="164.609" y2="132.095" gradientUnits="userSpaceOnUse">
<stop stop-color="#E93565"/>
<stop offset="1" stop-color="#BC2B5D"/>
</linearGradient>
<linearGradient id="paint23_linear_3_269" x1="181.214" y1="128.821" x2="181.214" y2="132.095" gradientUnits="userSpaceOnUse">
<stop stop-color="#E93565"/>
<stop offset="1" stop-color="#BC2B5D"/>
</linearGradient>
<linearGradient id="paint24_linear_3_269" x1="88.7643" y1="137.31" x2="88.7643" y2="140.583" gradientUnits="userSpaceOnUse">
<stop stop-color="#E93565"/>
<stop offset="1" stop-color="#BC2B5D"/>
</linearGradient>
<linearGradient id="paint25_linear_3_269" x1="105.369" y1="137.31" x2="105.369" y2="140.583" gradientUnits="userSpaceOnUse">
<stop stop-color="#E93565"/>
<stop offset="1" stop-color="#BC2B5D"/>
</linearGradient>
<linearGradient id="paint26_linear_3_269" x1="165.328" y1="137.31" x2="165.328" y2="140.583" gradientUnits="userSpaceOnUse">
<stop stop-color="#E93565"/>
<stop offset="1" stop-color="#BC2B5D"/>
</linearGradient>
<linearGradient id="paint27_linear_3_269" x1="181.924" y1="137.31" x2="181.924" y2="140.583" gradientUnits="userSpaceOnUse">
<stop stop-color="#E93565"/>
<stop offset="1" stop-color="#BC2B5D"/>
</linearGradient>
<linearGradient id="paint28_linear_3_269" x1="83.8168" y1="145.797" x2="83.8168" y2="149.07" gradientUnits="userSpaceOnUse">
<stop stop-color="#E93565"/>
<stop offset="1" stop-color="#BC2B5D"/>
</linearGradient>
<linearGradient id="paint29_linear_3_269" x1="102.265" y1="145.797" x2="102.265" y2="149.07" gradientUnits="userSpaceOnUse">
<stop stop-color="#E93565"/>
<stop offset="1" stop-color="#BC2B5D"/>
</linearGradient>
<linearGradient id="paint30_linear_3_269" x1="180.8" y1="145.797" x2="180.8" y2="149.07" gradientUnits="userSpaceOnUse">
<stop stop-color="#E93565"/>
<stop offset="1" stop-color="#BC2B5D"/>
</linearGradient>
<linearGradient id="paint31_linear_3_269" x1="162.352" y1="145.797" x2="162.352" y2="149.07" gradientUnits="userSpaceOnUse">
<stop stop-color="#E93565"/>
<stop offset="1" stop-color="#BC2B5D"/>
</linearGradient>
<linearGradient id="paint32_linear_3_269" x1="90.547" y1="85.4337" x2="90.547" y2="88.7073" gradientUnits="userSpaceOnUse">
<stop stop-color="#E93565"/>
<stop offset="1" stop-color="#BC2B5D"/>
</linearGradient>
<linearGradient id="paint33_linear_3_269" x1="100.465" y1="85.4337" x2="100.465" y2="88.7073" gradientUnits="userSpaceOnUse">
<stop stop-color="#E93565"/>
<stop offset="1" stop-color="#BC2B5D"/>
</linearGradient>
<linearGradient id="paint34_linear_3_269" x1="187.456" y1="85.4337" x2="187.456" y2="88.7073" gradientUnits="userSpaceOnUse">
<stop stop-color="#E93565"/>
<stop offset="1" stop-color="#BC2B5D"/>
</linearGradient>
<linearGradient id="paint35_linear_3_269" x1="177.429" y1="85.4337" x2="177.429" y2="88.7073" gradientUnits="userSpaceOnUse">
<stop stop-color="#E93565"/>
<stop offset="1" stop-color="#BC2B5D"/>
</linearGradient>
<linearGradient id="paint36_linear_3_269" x1="139.558" y1="27" x2="139.558" y2="183" gradientUnits="userSpaceOnUse">
<stop stop-color="#E93565"/>
<stop offset="1" stop-color="#BC2B5D"/>
</linearGradient>
<linearGradient id="paint37_linear_3_269" x1="0" y1="0" x2="280" y2="289.52" gradientUnits="userSpaceOnUse">
<stop stop-color="#E93565"/>
<stop offset="0.807292" stop-color="#621F4E" stop-opacity="0"/>
</linearGradient>
</defs>
</svg>
