<svg width="280" height="280" viewBox="0 0 280 280" fill="none" xmlns="http://www.w3.org/2000/svg">
<rect x="1.5" y="1.5" width="277" height="277" fill="#102342"/>
<path d="M139.953 27C139.642 28.739 139.662 30.478 139.343 32.2581C139.25 32.2683 138.974 32.2976 138.7 32.3293C136.363 32.5995 134.557 33.1489 133.555 34.0722C132.741 34.8218 132.555 35.6189 132.855 36.4295C133.014 36.8583 132.759 37.2069 132.296 37.6199C131.67 38.178 131.39 38.6605 131.429 39.2716C131.453 39.6528 131.853 40.0244 131.859 40.4018C131.898 42.8217 131.616 45.3062 131.641 47.7262C131.643 47.9811 131.363 48.0952 130.784 48.1916C128.377 48.5921 126.54 49.0848 124.952 49.9472C123.883 50.5277 123.325 51.178 123.993 51.9274C124.25 52.2163 124.384 52.5306 124.455 52.8379C124.491 52.9931 124.265 53.1592 124.15 53.3195C124.006 53.5215 123.725 53.7236 123.735 53.9239C123.753 54.2901 123.94 54.655 124.055 55.0146C125.949 55.1132 126.675 55.4671 126.615 56.2409C126.609 56.3247 126.601 56.4085 126.592 56.4923C126.322 59.1372 126.042 61.7821 125.797 64.4278C125.775 64.6696 125.602 64.7772 125.045 64.8624C122.405 65.2665 120.071 65.875 118.367 66.8095C116.963 67.5796 116.543 68.4449 117.43 69.3789C117.672 69.6335 117.824 69.9037 117.98 70.1705C118.019 70.2374 117.958 70.3712 117.866 70.3848C117.243 70.4762 117.38 70.679 117.398 70.8642C117.437 71.2472 117.525 71.6301 117.517 72.0128C117.513 72.2307 117.734 72.3099 118.191 72.3962C120.101 72.7573 121.672 73.2441 121.514 74.2374C121.467 74.5322 121.766 74.6863 122.433 74.7374C123.251 74.8 123.511 75.0291 123.468 75.3337C123.387 75.9022 123.277 76.47 123.168 77.0999C123.441 77.1312 123.867 77.18 124.333 77.2334C124.333 77.4497 124.356 77.6761 124.33 77.9016C123.83 82.2084 123.381 86.516 122.802 90.8212C122.411 93.7267 121.882 96.6296 121.334 99.5311C120.648 103.161 119.876 106.787 119.148 110.415C118.387 114.21 117.755 118.01 116.844 121.799C115.819 126.064 114.652 130.324 113.351 134.576C111.793 139.664 109.145 144.666 105.725 149.598C104.984 150.666 104.197 151.728 103.421 152.807C101.888 152.744 100.443 152.69 99.0003 152.625C95.6084 152.473 92.2223 152.353 88.8167 152.588C84.7543 152.869 81.0453 153.414 78.2105 154.663C82.3902 155.248 91.2101 156.833 96.0412 160.044C97.4059 160.952 100.422 163.244 100.171 166.303C100.04 167.908 99.004 169.552 96.2517 171.694C89.991 176.566 80.598 180.842 74.1353 182.999H78.5748C79.5845 182.662 80.6067 182.331 81.6018 181.986C85.0354 180.799 87.5715 179.326 89.789 177.734C91.5772 176.45 93.4084 175.165 95.5351 173.975C97.9491 172.625 101.112 171.573 104.702 170.762C106.698 170.312 108.818 170.008 111.134 170.162C114.549 170.389 116.993 171.494 117.372 172.957C117.8 174.606 116.7 176.143 115.015 177.599C113.845 178.609 112.341 179.556 110.929 180.517C109.374 181.575 107.099 182.335 104.615 182.999H108.949C114.395 179.821 118.099 176.352 119.534 174.437C121.324 172.049 125.759 165.812 119.907 158.877C118.2 156.853 115.638 155.052 114.02 154.015C113.882 154.011 113.747 154.002 113.626 153.987C111.931 153.782 110.255 153.55 108.526 153.322C109.26 152.137 110.029 150.926 110.762 149.711C111.676 148.196 112.545 146.676 113.362 145.153C117.461 144.618 122.445 144.082 127.754 143.718C127.544 144.689 127.331 145.659 127.12 146.63C126.729 148.43 126.174 150.224 125.733 152.023C125.654 152.344 125.376 152.474 124.576 152.544C121.492 152.813 118.542 153.246 115.69 153.794C117.354 154.875 119.822 156.642 121.517 158.651C127.557 165.81 122.963 172.236 121.162 174.64C119.718 176.567 116.216 179.865 111.015 182.999H118.596C121.257 180.356 123.506 177.656 125.144 174.874C125.465 174.328 125.7 173.772 126.084 173.234C126.305 172.922 126.622 172.598 127.103 172.346C133.687 168.894 146.413 169.044 152.528 172.638C152.817 172.808 153.049 173.017 153.13 173.22C154.454 176.532 156.82 179.711 160.199 182.765C160.28 182.838 160.31 182.921 160.364 183H167.101C161.977 179.847 159.455 176.522 158.043 174.638C156.228 172.215 152.093 165.672 158.13 158.518C159.69 156.669 161.963 155.002 163.621 153.902C159.163 153.757 155.816 152.613 154.393 152.413C153.778 152.326 153.495 152.229 153.428 151.964C153.022 150.357 152.466 148.754 152.179 147.143C151.968 145.96 151.761 144.776 151.558 143.592C156.682 143.887 161.352 144.355 165.503 144.893C166.879 147.635 168.469 150.362 170.303 153.073C170.364 153.163 170.404 153.256 170.415 153.278C168.506 153.696 166.85 153.846 165.639 153.895C164.007 154.943 161.419 156.753 159.74 158.743C153.885 165.683 157.895 172.066 159.671 174.435C161.139 176.395 163.771 179.84 169.158 183H174.345C171.506 182.251 168.959 181.368 166.968 180.238C162.822 177.884 161.132 175.241 161.583 172.357C161.737 171.375 164.504 170.354 167.092 170.272C169.35 170.2 171.416 170.466 173.373 170.887C177.782 171.836 181.165 173.209 183.388 175.052C186.893 177.959 191.283 180.605 197.003 182.858C197.102 182.897 197.162 182.952 197.24 183H203.648C197.282 180.809 188.554 176.76 182.495 172.044C179.743 169.902 178.707 168.259 178.575 166.654C178.325 163.595 181.341 161.303 182.706 160.395C185.608 158.466 190.113 157.111 194.153 156.202C197.125 155.533 199.833 155.108 201.534 154.88C199.214 153.736 196.288 152.957 192.679 152.621C189.982 152.37 187.233 152.415 184.5 152.487C181.717 152.56 178.939 152.671 176.106 152.767C176.054 152.711 175.972 152.637 175.915 152.559C170.438 145.18 166.587 137.658 164.632 129.987C163.657 126.166 163.195 122.323 162.454 118.491C162.008 116.188 161.478 113.887 160.975 111.585C160.491 109.367 159.948 107.151 159.514 104.931C159.032 102.472 158.619 100.01 158.222 97.5486C157.744 94.5848 157.293 91.6202 156.871 88.655C156.528 86.2495 156.231 83.8429 155.93 81.4365L156.019 81.3759C155.986 81.3678 155.952 81.3598 155.919 81.3517C155.91 81.2744 155.9 81.1971 155.89 81.1197C155.733 79.8647 155.612 78.609 155.475 77.3644C156.444 77.1127 156.803 77.1414 156.494 76.4709C155.822 75.0095 157.192 73.728 160.124 72.9747C160.905 72.7741 161.995 72.6442 162.384 72.3547C162.801 72.0443 162.56 71.584 162.606 71.1891C162.61 71.1533 162.608 71.1173 162.615 71.0815C162.654 70.8756 162.719 70.6701 162.032 70.607C161.925 70.5972 161.778 70.4944 161.8 70.4455C161.909 70.1909 161.943 69.912 162.231 69.6925C163.301 68.8787 163.285 68.0877 162.103 67.3097C160.33 66.1425 157.848 65.3221 154.714 64.8451C154.221 64.77 154.059 64.6768 154.046 64.4641C153.99 63.4942 153.885 62.5247 153.802 61.555C153.661 59.9029 153.448 58.2509 153.436 56.5986C153.433 56.1871 154.007 55.7584 154.485 55.3734C154.617 55.2667 155.361 55.2892 155.823 55.2499C155.873 55.2456 155.914 55.2241 156.004 55.1974C156.057 54.8056 156.139 54.4 156.151 53.9941C156.155 53.8468 155.992 53.6982 155.898 53.551C155.781 53.3678 155.517 53.1784 155.568 53.0041C155.647 52.7326 155.944 52.4723 156.138 52.2059C156.221 52.0922 156.32 51.9762 156.337 51.8595C156.515 50.6113 155.322 49.6493 152.729 48.9928C151.912 48.7859 151.042 48.6138 150.234 48.4015C149.99 48.3373 149.239 48.2027 149.23 48.0917C148.975 45.0748 149.229 42.0483 149.023 39.031C148.99 38.5487 148.605 38.1375 148.101 37.7073C147.658 37.3298 147.295 36.8565 147.434 36.457C148.184 34.2965 145.634 32.7456 140.477 32.2546C140.477 31.4139 140.317 30.4478 140.317 29.587C140.317 28.7288 140.18 27.8629 140.18 27.0047C140.112 27.0024 140.021 27.0039 139.953 27.0016L139.953 27ZM140.678 38.0013H140.754C141.509 38.0098 142.2 38.2179 142.215 38.5013C142.221 38.6195 142.226 38.7378 142.23 38.856C142.257 39.684 142.233 40.513 142.233 41.3482C141.154 41.392 140.022 41.4381 138.767 41.4892C138.868 40.6779 138.969 39.8481 139.078 39.0183C139.099 38.8563 139.139 38.6942 139.191 38.533C139.235 38.3979 139.342 38.2835 139.523 38.1958C139.755 38.083 140.107 38.0144 140.602 38.0023C140.628 38.0015 140.653 38.0013 140.678 38.0011L140.678 38.0013ZM135.881 38.2444C136.053 38.3436 136.371 38.4423 136.375 38.5422C136.413 39.5214 136.398 40.5009 136.398 41.517C135.883 41.5841 135.178 41.6759 134.599 41.7514C134.599 40.7021 134.595 39.6603 134.61 38.6184C134.611 38.5576 134.714 38.4774 134.861 38.4403C135.168 38.3629 135.537 38.3084 135.881 38.2445L135.881 38.2444ZM145.18 38.2444C145.571 38.3083 145.989 38.3629 146.338 38.4403C146.506 38.4774 146.623 38.5575 146.624 38.6184C146.641 39.6602 146.636 40.7021 146.636 41.7513C145.978 41.6759 145.178 41.5841 144.593 41.5171C144.593 40.5008 144.576 39.5214 144.618 38.5422C144.621 38.4923 144.712 38.4426 144.828 38.3931C144.943 38.3435 145.082 38.294 145.18 38.2444L145.18 38.2444ZM141.574 42.3151C141.936 42.3135 142.308 42.3216 142.694 42.3412V47.5686H137.77C137.763 47.5193 137.735 47.4154 137.735 47.3115C137.732 45.8742 137.754 44.4368 137.715 42.9997C137.708 42.7321 137.938 42.6171 138.515 42.541C139.499 42.4111 140.489 42.3197 141.574 42.3151L141.574 42.3151ZM136.244 42.581C136.363 44.2907 136.483 45.9907 136.6 47.6726C135.615 47.7485 134.737 47.8162 133.803 47.8883V43.87C133.803 43.262 134.671 42.7921 136.244 42.5809L136.244 42.581ZM144.467 42.581C145.598 42.7328 146.364 43.0182 146.706 43.3925C146.736 43.425 146.762 43.4583 146.785 43.4921C146.867 43.6106 146.908 43.737 146.908 43.87V47.8883C145.974 47.8163 145.096 47.7486 144.111 47.6726C144.228 45.9907 144.348 44.2907 144.467 42.5811L144.467 42.581ZM140.516 52.2363C141.35 52.2381 142.187 52.2862 143.035 52.3881V56.6853H137.342C137.336 56.6558 137.299 56.5664 137.299 56.4769C137.295 55.234 137.311 53.991 137.284 52.7482C137.279 52.5142 137.452 52.4184 138.013 52.3625C138.327 52.3312 138.64 52.3054 138.953 52.2854C139.161 52.2721 139.369 52.2614 139.578 52.2534C139.682 52.2494 139.786 52.2461 139.89 52.2435C140.099 52.2383 140.307 52.2359 140.516 52.2364L140.516 52.2363ZM134.924 52.5329C135.016 52.5329 135.108 52.5329 135.202 52.5337C135.064 53.9879 134.931 55.3961 134.8 56.7738C133.373 56.9571 131.974 57.1368 130.519 57.3237C130.51 57.2793 130.483 57.2029 130.483 57.1266C130.48 55.857 130.495 54.5875 130.467 53.318C130.463 53.091 130.642 52.9722 131.14 52.8863C132.331 52.6808 133.546 52.5382 134.924 52.5329L134.924 52.5329ZM145.573 52.5354C146.358 52.5383 147.131 52.5921 147.886 52.6872C148.054 52.7083 148.221 52.7314 148.387 52.7565C148.802 52.8193 149.211 52.8942 149.614 52.9796C149.706 52.9992 149.782 53.0551 149.827 53.1141C149.844 53.1377 149.857 53.1619 149.863 53.1844C149.867 53.1956 149.868 53.2064 149.868 53.2166C149.884 54.6381 149.879 56.0595 149.879 57.4628C148.35 57.2476 146.908 57.0447 145.293 56.8175V52.5366C145.386 52.5355 145.48 52.5351 145.573 52.5355V52.5354ZM152.078 53.8987C152.289 54.0983 152.682 54.2983 152.68 54.4976C152.678 54.665 152.675 54.8324 152.67 54.9998C152.64 56.1715 152.556 57.3431 152.49 58.5148C152.489 58.5328 152.441 58.5503 152.29 58.6529C152.19 58.5434 152.074 58.4488 151.982 58.3609C151.958 58.3389 151.937 58.3173 151.917 58.296C151.857 58.2322 151.816 58.171 151.807 58.109C151.754 57.7281 151.704 57.3471 151.659 56.966C151.644 56.8389 151.629 56.7119 151.615 56.5849C151.56 56.0767 151.516 55.5682 151.488 55.0597C151.467 54.6868 151.64 54.312 151.725 53.938C151.842 53.9248 151.96 53.9117 152.078 53.8986L152.078 53.8987ZM128.729 54.0436C128.614 55.3875 128.537 56.7089 128.343 58.0273C128.315 58.2173 127.72 58.3931 127.202 58.5418C127.188 58.4291 127.161 58.3165 127.161 58.2038C127.159 57.0553 127.155 55.9069 127.162 54.7585C127.165 54.3189 127.502 54.1495 128.729 54.0436L128.729 54.0436ZM137.874 57.3424C139.377 57.3452 140.881 57.3424 142.384 57.3464C142.806 57.3476 143.076 57.4042 143.073 57.6209C143.053 58.8771 143.063 60.1335 143.063 61.4025C142.18 61.3701 141.217 61.3497 140.183 61.3493C139.129 61.3493 138.147 61.3696 137.249 61.4025C137.249 61.163 137.258 60.9035 137.247 60.644C137.209 59.6621 137.179 58.68 137.11 57.6984C137.093 57.4562 137.277 57.3412 137.874 57.3423L137.874 57.3424ZM145.322 57.5375C146.893 57.8214 148.293 58.0677 149.673 58.3323C149.854 58.3671 150.036 58.4951 150.037 58.5804C150.061 59.8233 150.053 61.0661 150.053 62.3324C149.367 62.195 148.616 62.0576 147.802 61.9264C147.065 61.8077 146.359 61.7071 145.69 61.6217C145.572 60.3102 145.453 58.9861 145.323 57.5374L145.322 57.5375ZM134.735 57.6346V61.5846C134.064 61.6381 133.352 61.7048 132.605 61.7882C131.776 61.8808 131.009 61.9824 130.306 62.0868V61.0109C130.306 60.1865 130.287 59.3619 130.325 58.5378C130.331 58.4061 130.504 58.2262 130.749 58.1541C131.932 57.8061 133.273 57.6338 134.735 57.6345L134.735 57.6346ZM127.866 58.9594C127.962 58.9721 128.058 58.9848 128.154 58.9975C128.166 59.0968 128.195 59.1963 128.186 59.2953C128.084 60.4424 127.988 61.5898 127.853 62.7363C127.849 62.7725 127.831 62.8085 127.805 62.8443C127.792 62.8622 127.776 62.88 127.76 62.8979C127.676 62.987 127.554 63.0754 127.471 63.1645C127.311 63.1539 127.152 63.1433 126.992 63.1326C126.992 62.0008 126.938 60.8683 127.032 59.7378C127.037 59.672 127.074 59.6067 127.13 59.5416C127.144 59.5253 127.16 59.5091 127.176 59.4929C127.258 59.4117 127.367 59.3309 127.48 59.2502C127.525 59.2179 127.571 59.1857 127.616 59.1534C127.706 59.0888 127.793 59.0242 127.866 58.9593L127.866 58.9594ZM152.239 59.2044C152.384 59.3849 152.656 59.5657 152.653 59.7458C152.636 60.877 152.557 62.008 152.498 63.139C152.495 63.1861 152.475 63.2331 152.351 63.2814C151.776 61.9383 151.895 60.5848 151.965 59.232C152.056 59.2228 152.147 59.2136 152.239 59.2043L152.239 59.2044ZM140.18 62.0131C141.183 62.0131 142.186 62.0638 143.195 62.1642V63.7002H137.164V62.1655C138.173 62.0636 139.176 62.0131 140.18 62.0131V62.0131ZM134.858 62.2632C134.787 62.8105 134.724 63.2959 134.661 63.7823C133.2 63.9031 131.785 64.02 130.33 64.1402C130.307 64.0229 130.283 63.9047 130.261 63.7864C130.175 63.3293 130.133 63.1121 130.408 62.962C130.424 62.9532 130.442 62.9446 130.46 62.9362C130.571 62.8859 130.723 62.8426 130.929 62.7989C130.998 62.7843 131.073 62.7696 131.154 62.7546C131.397 62.7097 131.699 62.6618 132.07 62.6032C132.285 62.5693 132.503 62.5387 132.725 62.5101C133.391 62.424 134.094 62.3549 134.858 62.2632L134.858 62.2632ZM145.699 62.2658C146.394 62.3625 147.156 62.4851 147.961 62.6416C148.633 62.7725 149.24 62.9085 149.781 63.042C149.872 63.1095 149.957 63.1882 150.023 63.2779C150.306 63.6675 150.023 64.0165 149.863 64.1748C148.441 64.056 147.057 63.9404 145.523 63.8124C145.582 63.2969 145.64 62.7813 145.699 62.2658L145.699 62.2658ZM127.515 63.7187C127.629 63.7386 127.743 63.7586 127.857 63.7785C127.857 63.8903 127.879 64.0037 127.876 64.1152C127.875 64.1375 127.873 64.1597 127.87 64.1818C127.867 64.2039 127.863 64.2259 127.857 64.2478C127.851 64.2697 127.843 64.2914 127.833 64.3129C127.795 64.3952 127.499 64.4573 127.32 64.5286C127.182 64.4691 126.929 64.3938 126.858 64.3433C126.853 64.3395 126.848 64.3358 126.845 64.3322C126.842 64.3286 126.84 64.3252 126.839 64.322C126.839 64.3188 126.84 64.3158 126.842 64.3129C127.008 64.1069 127.281 63.9154 127.515 63.7187H127.515ZM139.535 67.3352C142.024 67.3328 144.498 67.4112 147.033 67.5574C146.878 67.8965 146.822 68.243 146.556 68.5596C145.208 70.1629 144.592 71.8055 144.754 73.5018C144.776 73.7251 144.524 73.9532 144.392 74.1784C144.306 74.3256 144.121 74.4721 144.126 74.618C144.179 76.2734 144.232 77.9287 144.286 79.584C142.971 79.5023 141.612 79.4568 140.21 79.4561C138.72 79.4553 137.278 79.5054 135.886 79.5959C135.902 79.2102 135.918 78.8246 135.933 78.4389C135.984 77.1216 135.997 75.8022 135.879 74.486C135.744 72.9858 135.52 71.4852 135.176 69.9909C135.044 69.4167 134.466 68.8604 134.107 68.2943C133.949 68.0458 133.829 67.7933 133.665 67.4935C135.654 67.3878 137.599 67.3371 139.535 67.3352L139.535 67.3352ZM132.092 67.6349C132.542 68.3407 132.995 69.002 133.382 69.6696C134.131 70.9611 134.374 72.2688 134.032 73.5925C134.002 73.7085 134.025 73.8296 134.067 73.9457C134.189 74.2806 134.469 74.6158 134.447 74.9482C134.42 75.3699 134.276 77.4178 134.112 79.7346C131.731 79.9536 129.515 80.2876 127.482 80.6835C127.647 79.0611 127.809 77.4385 127.984 75.8163C128.024 75.4435 128.187 75.0709 127.088 74.8787C126.964 74.857 126.903 74.6947 126.942 74.6071C127.812 72.6223 126.508 70.9629 122.641 69.6777C122.022 69.4718 122.087 69.0983 122.764 68.9424C125.686 68.2694 128.799 67.8256 132.092 67.6348L132.092 67.6349ZM148.702 67.6914C152.188 67.9499 155.366 68.4609 158.168 69.3372C158.641 69.485 158.569 69.8024 158.074 69.9455C153.941 71.1406 152.613 72.8145 153.112 74.8106C153.141 74.9253 152.969 75.0906 152.753 75.1646C152.311 75.3162 152.132 75.4722 152.153 75.7142C152.297 77.3502 152.428 78.9864 152.56 80.6226C150.594 80.2495 148.461 79.9362 146.177 79.7285C145.969 77.1369 145.861 75.1855 146.066 74.8574C146.088 74.8223 146.231 74.522 146.423 74.1072C146.471 74.0045 146.53 73.8969 146.504 73.795C146.149 72.4192 146.456 71.0686 147.428 69.7461C147.77 69.2812 148.244 68.8326 148.578 68.3669C148.721 68.1671 148.663 67.9429 148.702 67.6913L148.702 67.6914ZM140.207 80.6482C141.625 80.6489 142.999 80.7009 144.325 80.7941C144.494 85.9676 144.667 91.1409 144.838 96.3151C143.347 96.2306 141.805 96.1833 140.214 96.1827C138.475 96.1819 136.794 96.2364 135.175 96.335C135.207 95.5196 135.24 94.7042 135.275 93.8889C135.464 89.5288 135.661 85.1688 135.838 80.8084C137.242 80.7051 138.699 80.6476 140.207 80.6483L140.207 80.6482ZM146.279 80.9639C148.575 81.2015 150.711 81.5568 152.669 81.9742C152.84 84.0658 153.018 86.1573 153.233 88.2482C153.546 91.3034 153.927 94.3578 154.352 97.4106C152.16 97.0279 149.779 96.7039 147.228 96.4848C147.179 95.684 147.13 94.8831 147.082 94.0823C147.036 93.2964 147.095 93.4272 147.092 92.9324C147.075 89.7427 146.609 84.8604 146.279 80.9636L146.279 80.9639ZM134.025 80.9695C133.738 85.0203 133.418 89.5319 133.418 89.5319C133.281 90.6 133.432 89.8045 133.13 94.2386C133.075 95.0443 133.021 95.7932 132.967 96.4993C130.191 96.7434 127.617 97.1112 125.272 97.5425C125.808 93.9627 126.356 90.383 126.805 86.8015C127.004 85.2179 127.177 83.6337 127.342 82.0495C129.378 81.6033 131.613 81.2218 134.025 80.9699L134.025 80.9695ZM140.21 97.6733C141.823 97.6741 143.383 97.7282 144.888 97.8248C144.897 98.0905 144.906 98.3562 144.914 98.6219C145.073 103.441 145.187 108.26 145.383 113.078C143.715 113.003 141.992 112.961 140.22 112.961C138.193 112.96 136.231 113.013 134.34 113.109C134.426 111.888 134.508 110.668 134.583 109.447C134.822 105.581 134.965 101.715 135.115 97.8482C136.748 97.7355 138.448 97.6725 140.21 97.6733H140.21ZM147.322 98.021C149.945 98.2767 152.375 98.6551 154.59 99.0939C154.605 99.1985 154.62 99.3032 154.635 99.4078C155.314 104.094 156.059 108.778 156.845 113.461C156.886 113.706 156.928 113.951 156.97 114.195C154.256 113.794 151.299 113.456 148.126 113.236C148.088 112.708 148.05 112.179 148.014 111.651C147.862 109.484 147.863 107.315 147.745 105.148C147.615 102.772 147.468 100.397 147.322 98.0214V98.021ZM132.844 98.0404C132.525 101.905 132.217 104.472 131.89 108.028C131.679 110.323 131.558 111.963 131.479 113.291C128.341 113.529 125.421 113.881 122.747 114.292C123.182 111.753 123.461 109.209 123.844 106.668C124.216 104.194 124.633 101.721 125.014 99.2472C127.375 98.7546 129.995 98.3257 132.844 98.0405V98.0404ZM140.216 114.75C142.02 114.75 143.769 114.798 145.458 114.884C145.652 119.438 145.828 123.992 146.242 128.544C144.297 128.469 142.291 128.428 140.227 128.427C137.758 128.427 135.372 128.484 133.075 128.587C133.142 127.942 133.204 127.298 133.259 126.652C133.594 122.742 133.922 118.832 134.21 114.92C136.135 114.81 138.139 114.749 140.217 114.749L140.216 114.75ZM148.26 115.064C151.539 115.318 154.566 115.709 157.312 116.165C157.85 119.217 158.426 122.269 158.994 125.32C159.265 126.772 159.575 128.222 159.929 129.668C156.711 129.261 153.205 128.92 149.442 128.699C149.286 127.159 149.143 125.617 149.003 124.076C148.729 121.073 148.484 118.068 148.26 115.064L148.26 115.064ZM131.385 115.121C131.275 117.632 131.264 119.34 130.777 124.264C130.647 125.587 130.491 127.078 130.293 128.737C126.389 128.981 122.768 129.354 119.465 129.792C119.91 128.165 120.312 126.536 120.685 124.907C121.341 122.033 121.886 119.154 122.398 116.275C125.115 115.806 128.122 115.397 131.385 115.121L131.385 115.121ZM140.223 130.813C142.381 130.814 144.471 130.863 146.488 130.951C146.849 134.103 147.35 137.253 147.882 140.402C145.416 140.314 142.866 140.265 140.235 140.264C137.23 140.264 134.245 140.343 131.333 140.478C131.689 138.49 132.024 136.502 132.318 134.513C132.491 133.343 132.651 132.173 132.797 131.003C135.171 130.881 137.648 130.812 140.223 130.813L140.223 130.813ZM149.704 131.129C153.671 131.392 157.322 131.799 160.616 132.272C161.498 135.39 162.596 138.492 163.949 141.577C160.011 141.139 155.697 140.771 151.047 140.537C150.717 138.509 150.405 136.48 150.122 134.451C149.968 133.344 149.831 132.236 149.704 131.128L149.704 131.129ZM129.985 131.174C129.787 132.655 129.552 134.257 129.269 135.997C129.016 137.544 128.72 139.089 128.405 140.634C123.601 140.922 119.064 141.35 115.057 141.811C116.279 139.26 117.333 136.695 118.175 134.114C118.358 133.551 118.535 132.988 118.706 132.425C122.083 131.915 125.859 131.468 129.985 131.175L129.985 131.174ZM140.23 143.263C143.061 143.264 145.792 143.325 148.416 143.434C148.948 146.203 149.606 148.969 150.189 151.736C150.202 151.794 150.191 151.852 150.191 151.936C146.636 151.589 143.098 151.413 139.503 151.439C135.938 151.465 132.444 151.689 128.917 152.081C129.112 151.219 129.308 150.387 129.488 149.555C129.922 147.548 130.391 145.541 130.772 143.531C133.888 143.363 137.076 143.262 140.23 143.263L140.23 143.263ZM70.8832 154.963C68.7267 154.963 66.5721 155.035 64.4174 155.179C63.7681 155.222 63.3944 155.34 63.1811 155.603C62.2457 156.756 63.237 158.014 65.7174 158.707C66.1283 158.822 66.6531 158.902 67.1465 158.927C76.1663 159.385 82.734 161.262 86.4703 164.683C88.608 166.641 89.21 168.678 87.2989 170.757C86.0276 172.14 84.4621 173.458 82.4468 174.683C77.7144 177.558 71.5683 179.817 64.4323 181.64C62.6323 182.1 60.8113 182.546 59 182.998H71.4511L71.4189 182.98C77.4914 181.167 88.0522 176.577 94.7407 171.371C97.4098 169.294 98.3441 167.78 98.4671 166.278C98.7015 163.417 95.8672 161.257 94.5871 160.406C89.2243 156.841 77.9111 155.31 75.897 155.098L75.8997 155.093C74.2257 155.006 72.5537 154.963 70.8828 154.963L70.8832 154.963ZM209.835 155.023C207.694 155.019 205.562 155.136 203.443 155.383C203.296 155.4 203.167 155.41 203.049 155.412C201.75 155.564 198.518 156.01 194.975 156.807C191.095 157.68 186.833 158.976 184.156 160.756C182.876 161.607 180.042 163.767 180.276 166.628C180.399 168.13 181.334 169.643 184.003 171.721C190.473 176.756 200.226 181.077 206.357 182.998H221.356C220.259 182.779 219.148 182.572 218.066 182.341C207.606 180.113 199.258 176.967 193.688 172.668C191.044 170.627 190.052 168.4 191.094 166.122C192.781 162.434 201.107 159.421 210.195 159.057C210.943 159.027 211.815 159.069 212.41 158.925C215.009 158.294 216.851 157.01 215.854 155.617C215.69 155.387 215.392 155.293 214.848 155.247C213.172 155.102 211.501 155.026 209.835 155.023L209.835 155.023ZM92.4637 171.086C92.6417 171.089 92.8058 171.107 92.887 171.142C93.0838 171.228 93.1951 171.444 93.0682 171.544C89.6313 174.28 85.1666 176.694 79.6153 178.763C79.6001 178.769 79.568 178.767 79.5439 178.769C79.4629 178.742 79.382 178.715 79.3009 178.688C82.9218 176.465 86.5422 174.242 90.1643 172.02C90.5035 171.811 90.8338 171.6 91.2051 171.402C91.4131 171.291 91.6597 171.165 91.957 171.117C92.0939 171.094 92.2857 171.083 92.4636 171.086H92.4637ZM188.237 171.645C188.415 171.642 188.607 171.654 188.744 171.676C189.041 171.724 189.288 171.85 189.496 171.961C189.867 172.159 190.198 172.371 190.537 172.579C194.159 174.801 197.779 177.024 201.4 179.247C201.319 179.274 201.238 179.301 201.157 179.328C201.133 179.326 201.101 179.328 201.086 179.323C195.535 177.253 191.07 174.839 187.633 172.104C187.506 172.003 187.617 171.787 187.814 171.701C187.895 171.666 188.059 171.648 188.237 171.645L188.237 171.645Z" fill="url(#paint0_linear_3_264)"/>
<path d="M84.128 242.448V246H70.576V222.864H74.88V242.448H84.128ZM102.625 237.264L99.809 229.568C99.6703 229.227 99.5263 228.821 99.377 228.352C99.2277 227.883 99.0783 227.376 98.929 226.832C98.7903 227.376 98.6463 227.888 98.497 228.368C98.3477 228.837 98.2037 229.248 98.065 229.6L95.265 237.264H102.625ZM110.225 246H106.897C106.524 246 106.22 245.909 105.985 245.728C105.75 245.536 105.574 245.301 105.457 245.024L103.729 240.304H94.145L92.417 245.024C92.3317 245.269 92.1663 245.493 91.921 245.696C91.6757 245.899 91.3717 246 91.009 246H87.649L96.753 222.864H101.137L110.225 246ZM135.324 222.864V246H131.004V235.888H120.14V246H115.82V222.864H120.14V232.816H131.004V222.864H135.324ZM165.74 234.432C165.74 236.128 165.457 237.701 164.892 239.152C164.337 240.592 163.548 241.84 162.524 242.896C161.5 243.952 160.268 244.779 158.828 245.376C157.388 245.963 155.788 246.256 154.028 246.256C152.279 246.256 150.684 245.963 149.244 245.376C147.804 244.779 146.567 243.952 145.532 242.896C144.508 241.84 143.713 240.592 143.148 239.152C142.583 237.701 142.3 236.128 142.3 234.432C142.3 232.736 142.583 231.168 143.148 229.728C143.713 228.277 144.508 227.024 145.532 225.968C146.567 224.912 147.804 224.091 149.244 223.504C150.684 222.907 152.279 222.608 154.028 222.608C155.201 222.608 156.305 222.747 157.34 223.024C158.375 223.291 159.324 223.675 160.188 224.176C161.052 224.667 161.825 225.269 162.508 225.984C163.201 226.688 163.788 227.477 164.268 228.352C164.748 229.227 165.111 230.176 165.356 231.2C165.612 232.224 165.74 233.301 165.74 234.432ZM161.34 234.432C161.34 233.163 161.169 232.027 160.828 231.024C160.487 230.011 160.001 229.152 159.372 228.448C158.743 227.744 157.975 227.205 157.068 226.832C156.172 226.459 155.159 226.272 154.028 226.272C152.897 226.272 151.879 226.459 150.972 226.832C150.076 227.205 149.308 227.744 148.668 228.448C148.039 229.152 147.553 230.011 147.212 231.024C146.871 232.027 146.7 233.163 146.7 234.432C146.7 235.701 146.871 236.843 147.212 237.856C147.553 238.859 148.039 239.712 148.668 240.416C149.308 241.109 150.076 241.643 150.972 242.016C151.879 242.389 152.897 242.576 154.028 242.576C155.159 242.576 156.172 242.389 157.068 242.016C157.975 241.643 158.743 241.109 159.372 240.416C160.001 239.712 160.487 238.859 160.828 237.856C161.169 236.843 161.34 235.701 161.34 234.432ZM179.712 233.872C180.522 233.872 181.226 233.771 181.824 233.568C182.432 233.365 182.928 233.088 183.312 232.736C183.706 232.373 184 231.947 184.192 231.456C184.384 230.965 184.48 230.427 184.48 229.84C184.48 228.667 184.09 227.765 183.312 227.136C182.544 226.507 181.365 226.192 179.776 226.192H177.024V233.872H179.712ZM190.784 246H186.896C186.16 246 185.626 245.712 185.296 245.136L180.432 237.728C180.25 237.451 180.048 237.253 179.824 237.136C179.61 237.019 179.29 236.96 178.864 236.96H177.024V246H172.72V222.864H179.776C181.344 222.864 182.688 223.029 183.808 223.36C184.938 223.68 185.861 224.133 186.576 224.72C187.301 225.307 187.834 226.011 188.176 226.832C188.517 227.643 188.688 228.539 188.688 229.52C188.688 230.299 188.57 231.035 188.336 231.728C188.112 232.421 187.781 233.051 187.344 233.616C186.917 234.181 186.384 234.677 185.744 235.104C185.114 235.531 184.394 235.867 183.584 236.112C183.861 236.272 184.117 236.464 184.352 236.688C184.586 236.901 184.8 237.157 184.992 237.456L190.784 246ZM200.802 226.288V232.704H208.898V236.016H200.802V242.56H211.074V246H196.482V222.864H211.074V226.288H200.802Z" fill="white"/>
<rect x="1.5" y="1.5" width="277" height="277" stroke="url(#paint1_linear_3_264)" stroke-width="3"/>
<defs>
<linearGradient id="paint0_linear_3_264" x1="140.178" y1="27" x2="140.178" y2="183" gradientUnits="userSpaceOnUse">
<stop stop-color="#E93565"/>
<stop offset="1" stop-color="#BC2B5D"/>
</linearGradient>
<linearGradient id="paint1_linear_3_264" x1="0" y1="0" x2="280" y2="289.52" gradientUnits="userSpaceOnUse">
<stop stop-color="#E93565"/>
<stop offset="0.807292" stop-color="#621F4E" stop-opacity="0"/>
</linearGradient>
</defs>
</svg>
